<svg xmlns="http://www.w3.org/2000/svg" viewBox="0 0 500 500"><g id="freepik--background-simple--inject-73"><path d="M78.48,126.9c27.92-59.45,127.06-51.06,165.32-9.25s50.69,68.6,85.2,53,78.52-11.44,81.05,38.17S372.13,317.06,308,334.41s-64.16,78.76-149.1,66.37c-46.31-6.76-47.37-56.86-40.83-98.3S46.1,195.85,78.48,126.9Z" style="fill:#407BFF"></path><path d="M78.48,126.9c27.92-59.45,127.06-51.06,165.32-9.25s50.69,68.6,85.2,53,78.52-11.44,81.05,38.17S372.13,317.06,308,334.41s-64.16,78.76-149.1,66.37c-46.31-6.76-47.37-56.86-40.83-98.3S46.1,195.85,78.48,126.9Z" style="fill:#fff;opacity:0.9"></path></g><g id="freepik--Shadow--inject-73"><ellipse id="freepik--path--inject-73" cx="250" cy="416.24" rx="193.89" ry="11.32" style="fill:#f5f5f5"></ellipse></g><g id="freepik--phase-4--inject-73"><path d="M417.83,304.72V413A6.84,6.84,0,0,1,411,419.8H268.38a6.84,6.84,0,0,1-6.86-6.84V304.72a6.84,6.84,0,0,1,6.86-6.85H411A6.84,6.84,0,0,1,417.83,304.72Z" style="fill:#407BFF"></path><path d="M414.63,317.53V413a3.72,3.72,0,0,1-.27,1.37,3.65,3.65,0,0,1-3.38,2.27H268.26a3.58,3.58,0,0,1-3.15-2,2.7,2.7,0,0,1-.23-.58,3.52,3.52,0,0,1-.16-1V317.53a3.67,3.67,0,0,1,3.66-3.65H411A3.66,3.66,0,0,1,414.63,317.53Z" style="fill:#fff;opacity:0.4;isolation:isolate"></path><path d="M325.42,305.32c0,1.53-1.13,2.47-3,2.47h-1.57v2H319.6v-6.95h2.86C324.29,302.85,325.42,303.78,325.42,305.32Zm-1.3,0c0-.87-.59-1.38-1.72-1.38h-1.51v2.76h1.51C323.53,306.7,324.12,306.2,324.12,305.32Z" style="fill:#fff"></path><path d="M332.89,302.85v6.95h-1.3v-3H328v3h-1.29v-6.95H328v2.87h3.59v-2.87Z" style="fill:#fff"></path><path d="M339.26,308.19h-3.47l-.69,1.61h-1.33l3.13-6.95h1.27l3.14,6.95H340Zm-.42-1-1.32-3-1.3,3Z" style="fill:#fff"></path><path d="M341.61,309.07l.44-1a3.85,3.85,0,0,0,2.3.77c1.08,0,1.54-.39,1.54-.91,0-1.5-4.13-.51-4.13-3.09,0-1.13.89-2.08,2.8-2.08a4.38,4.38,0,0,1,2.31.62l-.41,1a3.82,3.82,0,0,0-1.91-.55c-1.08,0-1.51.42-1.51.95,0,1.48,4.12.51,4.12,3.06,0,1.12-.91,2.07-2.81,2.07A4.49,4.49,0,0,1,341.61,309.07Z" style="fill:#fff"></path><path d="M353.65,308.72v1.08h-5.21v-6.95h5.07v1.08h-3.78v1.81h3.36v1.06h-3.36v1.92Z" style="fill:#fff"></path><path d="M363.54,308.22H362.3v1.58h-1.25v-1.58h-3.81v-.89l3.43-4.48h1.38l-3.23,4.28h2.27v-1.4h1.21v1.4h1.24Z" style="fill:#fff"></path><path d="M346.64,388.56l-7.55-3.77s-1.81-2.45-2.29-2.56-9.6,1.11-9.6,1.11a14.37,14.37,0,0,0,1.89,3.78c.89.89,6.78-.22,6.78-.22l7.44,3.66Z" style="fill:#b97964"></path><path d="M353.11,354.7c2,2,3.94,3.47,1,6.19s-2.39,7.21,1.38,9.21,22.63,8.84,29.61,1,1.79-13.29-1.64-14.77-.13-5.35.2-8.15-12.57-14.3-18.59-15.06-10.07,4.45-10,9.7S349.81,351.5,353.11,354.7Z" style="fill:#263238"></path><path d="M360.42,369c.42,0-2.31,18.06-3.05,20.76s-15.84-4.56-15.84-4.56l-2.44,3.73s13.26,11.15,19,9.89,10-21,10-21Z" style="fill:#407BFF"></path><path d="M339.09,388.92s13.26,11.15,19,9.89c2.3-.51,4.36-4,6-8a89.19,89.19,0,0,0,3.91-12.6c.05-.26.08-.39.08-.39l-.82-1-3.08-3.57-3.7-4.29c.28.7-2.35,18.1-3.07,20.74s-15.84-4.56-15.84-4.56Z" style="fill:#fff;opacity:0.7000000000000001"></path><path d="M364.05,390.82a89.19,89.19,0,0,0,3.91-12.6c-.24-.47-.48-.92-.74-1.35a12,12,0,0,0-3.08-3.57l-.12-.09S360.78,382.63,364.05,390.82Z" style="opacity:0.2;isolation:isolate"></path><path d="M397.81,416.59h-23.3l-.26-3.75-2-28.24v-.26l-.18-2.57L371.9,379l-.31-4.39h0l0-.75a.19.19,0,0,0,0-.08l1,.13,5.37.63h0l6.77.81.7.07h0l4.05.47,2.42.29,2.84.34.79,10.26.67,8.75,0,.34.11,1.53.19,2.47L397,406Z" style="fill:#407BFF"></path><path d="M397.81,416.59h-23.3l-.26-3.75-2-28.24v-.26l-.18-2.57L371.9,379l-.31-4.39h0l0-.75a.19.19,0,0,0,0-.08l1,.13,5.37.63h0l6.77.81.7.07h0l4.05.47,2.42.29,2.84.34.79,10.26.67,8.75,0,.34.11,1.53.19,2.47L397,406Z" style="fill:#fff;opacity:0.4"></path><path d="M414.36,414.32a3.65,3.65,0,0,1-3.38,2.27H382l.85-2-1.59-14.21-.06-.53-.09-.78-.07-.66,1.18-.09,1.38-.08,1.47-.11,2.16-.15,1.28-.09,4.77-.32.4,0h0l2.68-.18,2.89-.19,1.38-.1,8.06-.55.34,0s.28.6.73,1.71A88,88,0,0,1,414.36,414.32Z" style="fill:#263238"></path><polygon points="407.39 392.89 408.7 396.65 382.34 403.62 380.8 399.17 407.39 392.89"></polygon><rect x="399.3" y="393.93" width="1.35" height="6.88" transform="translate(895.22 666.86) rotate(163.74)" style="fill:#263238"></rect><rect x="387.65" y="397.18" width="5.97" height="4.52" transform="translate(866.67 691.92) rotate(165.93)" style="fill:#fff"></rect><rect x="383.02" y="397.67" width="1.35" height="6.88" transform="translate(864.41 678.64) rotate(163.73)" style="fill:#263238"></rect><path d="M360.84,369q1.71,2.22,3.18,4.22c3.84,5.14,6.58,8.79,8.67,11.73a60.53,60.53,0,0,1,6.09,10.14c.69,1.44,1.36,3,2.11,4.88l26.5-7.07c-5-18.52-9.26-28.23-11.4-33.08a1,1,0,0,0-.07-.15,6.68,6.68,0,0,0-7.85-3.73c-1.91.51-4.14,1.16-6.2,1.86a87.13,87.13,0,0,0-11.19,5.06A80.83,80.83,0,0,0,360.84,369Z" style="fill:#407BFF"></path><path d="M388.07,355.93c3.48-.92-1.64,11.35-9.57,13.73s-12.7-.54-12.71-2.82S377.54,358.7,388.07,355.93Z" style="fill:#b97964"></path><path d="M413.22,404.12c.49,1.43,1,2.84,1.41,4.24V413a3.72,3.72,0,0,1-.27,1.37,3.65,3.65,0,0,1-3.38,2.27h-9.75c-1.38-3.43-2.81-7-4.23-10.58-.76-1.9-1.51-3.8-2.25-5.67q-.31-.81-.63-1.59c-.16-.39-.31-.77-.46-1.17h0c-.11-.32-.24-.63-.35-.93l-.16-.39c-1.33-3.39-2.57-6.59-3.65-9.42,0-.09-.07-.16-.1-.24-.19-.48-.36-1-.53-1.41h0l-.26-.65c-.63-1.66-1.18-3.16-1.64-4.43,0,0,0,0,0,0h0c-.54-1.51-.95-2.7-1.2-3.53-.11-.36-.21-.73-.31-1.11h0a29.69,29.69,0,0,1-.67-4,43.61,43.61,0,0,1-.17-5.79,58,58,0,0,1,.82-8.12c0-.32.1-.6.15-.84h0c.11-.6.18-.94.18-.94s.2,0,.3-.06a18.67,18.67,0,0,1,8.13.32l.43.13.91.33a6.84,6.84,0,0,1,1,.53c.58.36.94.74,1,1.07a.35.35,0,0,0,0,.12c0,.06,0,.12,0,.21.28,1,1.17,3.94,2.32,7.62.1.31.19.63.3,1,0,.12.08.24.11.35.2.67.41,1.36.64,2.05l.89,2.87c.74,2.35,1.49,4.75,2.21,7,.16.53.32,1,.48,1.54.23.73.44,1.42.66,2.09.76,2.41,1.39,4.4,1.77,5.62.1.32.18.58.25.79h0l.07.23c.06.19.1.28.1.28.45.95.88,1.92,1.32,2.88a.61.61,0,0,0,.05.12q1.25,2.79,2.33,5.6l.68,1.75c.33.87.64,1.72.94,2.58Z" style="fill:#407BFF"></path><path d="M375.38,416.59h-1.92q-.39-2.8-.79-5.87c-.89-6.77-1.77-14.26-2.38-21l-3-6.32h0l-.42-.9h0l-2.22-4.68-.65-1.37-.54-1.13,0-.07h0l-1.24-2.59-1.72-3.62h0l0-.06,7.49-5.07h0l2.37-1.6.28-.18s0,.25,0,.72v.08c0,.47,0,1.12.06,1.93v0c.05,1.43.18,3.33.44,5.54.13,1.06.28,2.18.49,3.35a.19.19,0,0,1,0,.08c0,.25.09.5.14.76.25,1.4.57,2.86,1,4.35,0,.09.05.19.07.27.28,1,.59,2.08.94,3.12.24.72.49,1.42.76,2.13.12.29.24.57.35.85l.06,2.66v.06s0,0,0,0l.52,26.62Z" style="fill:#407BFF"></path><path d="M414.63,408.36V413a3.72,3.72,0,0,1-.27,1.37,3.65,3.65,0,0,1-3.38,2.27h-9.75c-1.38-3.43-2.81-7-4.23-10.58-.76-1.9-1.51-3.8-2.25-5.67q-.31-.81-.63-1.59l-.47-1.17c-.11-.32-.24-.63-.35-.93l-.16-.39c-1.33-3.39-2.57-6.59-3.65-9.42,0,0,0,0,0,0s-.07-.16-.09-.24c-.19-.48-.36-1-.53-1.41l0,0-.24-.63c-.63-1.66-1.18-3.16-1.64-4.43,0,0,0,0,0,0-.54-1.51-.95-2.7-1.2-3.53-.11-.36-.21-.73-.31-1.11h0a29.69,29.69,0,0,1-.67-4,43.61,43.61,0,0,1-.17-5.79,58,58,0,0,1,.82-8.12c0-.32.1-.6.15-.84h0c.11-.6.18-.94.18-.94s.2,0,.3-.06a18.67,18.67,0,0,1,8.13.32l.43.13.91.33a6.84,6.84,0,0,1,1,.53c.58.36.94.74,1,1.07a.35.35,0,0,0,0,.12c0,.06,0,.12,0,.21.28,1,1.17,3.94,2.32,7.62.1.32.19.65.3,1a1.73,1.73,0,0,0,.11.32c.2.67.41,1.36.64,2.05l.89,2.87c.74,2.35,1.49,4.75,2.21,7,.16.53.32,1,.48,1.54.23.73.44,1.42.66,2.09.76,2.41,1.39,4.4,1.77,5.62.1.32.18.59.25.79h0l.07.23c.06.19.1.28.1.28.45.95.88,1.92,1.32,2.88a.61.61,0,0,0,.05.12q1.25,2.79,2.33,5.6l.68,1.75c.33.87.64,1.72.94,2.58l.51,1.44C413.71,405.55,414.18,407,414.63,408.36Z" style="fill:#fff;opacity:0.8"></path><path d="M375.38,416.59h-1.92q-.39-2.8-.79-5.87c-.89-6.77-1.77-14.26-2.38-21l-3-6.32h0l-.42-.9h0l-2.22-4.68-.65-1.37-.54-1.13,0-.07h0l-1.24-2.59-1.72-3.62h0l0-.06,7.49-5.07h0l2.37-1.6.28-.18s0,.25,0,.72v.08c0,.47,0,1.12.06,1.93v0c.05,1.43.18,3.33.44,5.54.13,1.06.28,2.18.49,3.35a.19.19,0,0,1,0,.08c0,.25.09.5.14.76.25,1.4.57,2.86,1,4.35,0,.09.05.19.07.27.28,1,.59,2.08.94,3.12.24.72.49,1.42.76,2.13.12.29.24.57.35.85l.06,2.66v.06s0,0,0,0l.52,26.62Z" style="fill:#fff;opacity:0.8"></path><path d="M370.28,361.07s-3.5,2.83-5.81,10.33l4.71,3.36-1.13,3.07,6.72,10.73a24.94,24.94,0,0,0-.53-8.33C373.16,376.23,370,364.47,370.28,361.07Z" style="fill:#407BFF"></path><path d="M384.56,355.7a39.47,39.47,0,0,0,4.29,29.49s.27-11.21,1.79-15.29L387,368.46l7.14-4.64S388.37,354.32,384.56,355.7Z" style="fill:#407BFF"></path><path d="M370.28,361.07s-3.5,2.83-5.81,10.33l4.71,3.36-1.13,3.07,6.72,10.73a24.94,24.94,0,0,0-.53-8.33C373.16,376.23,370,364.47,370.28,361.07Z" style="fill:#fff;opacity:0.7000000000000001"></path><path d="M384.56,355.7a39.47,39.47,0,0,0,4.29,29.49s.27-11.21,1.79-15.29L387,368.46l7.14-4.64S388.37,354.32,384.56,355.7Z" style="fill:#fff;opacity:0.7000000000000001"></path><path d="M377.94,368c4.46-5.07,4.08-8.55,4.08-8.55-5.84-.2-7.78-7.75-7.78-7.75l-5.06,6.46a23.33,23.33,0,0,1,2.48,2.34c3.28,3.63,1.65,5.13,1.65,5.13C374,368.6,377.94,368,377.94,368Z" style="fill:#b97964"></path><path d="M369.18,358.2a23.33,23.33,0,0,1,2.48,2.34c2.32-3.24,2.58-8.8,2.58-8.8Z" style="opacity:0.2;isolation:isolate"></path><path d="M363.67,334.36c-6.82,1.66-8.12,5.85-6.91,13,1.51,8.94,5,14.71,13.05,10.75C380.78,352.74,375,331.6,363.67,334.36Z" style="fill:#b97964"></path><path d="M361.08,345.91a15.2,15.2,0,0,1-1.3,3.31,1.94,1.94,0,0,0,2,.33Z" style="fill:#a24e3f"></path><path d="M365.11,344.33c.13.57.53,1,.91.87s.58-.6.46-1.17-.53-.95-.91-.87S365,343.77,365.11,344.33Z" style="fill:#263238"></path><path d="M365.73,343.16l-1.33-.22S365.24,343.84,365.73,343.16Z" style="fill:#263238"></path><path d="M358.08,345.75c.13.56.53.95.91.87s.58-.61.45-1.17-.52-.95-.9-.87S358,345.18,358.08,345.75Z" style="fill:#263238"></path><path d="M358.7,344.57l-1.33-.21S358.21,345.26,358.7,344.57Z" style="fill:#263238"></path><path d="M367.25,340.28a.35.35,0,0,1-.22-.08,3.33,3.33,0,0,0-2.86-.26.36.36,0,1,1-.26-.67,3.93,3.93,0,0,1,3.55.36.36.36,0,0,1-.21.65Z" style="fill:#263238"></path><path d="M356.43,342.11a.35.35,0,0,1-.25-.1.35.35,0,0,1,0-.51,3.68,3.68,0,0,1,2.89-1.34.38.38,0,0,1,.32.41.37.37,0,0,1-.4.31,3,3,0,0,0-2.28,1.11A.35.35,0,0,1,356.43,342.11Z" style="fill:#263238"></path><path d="M373.93,344s-4.56-4.82-5.13-9.27c0,0-14.86-2.23-12.18,11.65,0,0-4.29-11.86,7.37-15s15.79,14,11,20.62C375,352.06,376.76,347.07,373.93,344Z" style="fill:#263238"></path><path d="M370,345.85s.74,5,3,7.17c0,0-2.48,5.17-7.5,6s-8.67-4.34-9.28-9.42C356.28,349.58,365.69,349.07,370,345.85Z" style="fill:#fff"></path><path d="M372.08,353.89l-.13-.49a6,6,0,0,0,3.72-3.54,6.91,6.91,0,0,0-.31-6.15c-.46-.83-1-1.25-1.56-1.25h0c-1.57,0-3.36,3.1-3.92,4.27l-.45-.21c.08-.19,2.17-4.5,4.35-4.56.77,0,1.48.48,2.05,1.51a7.37,7.37,0,0,1,.33,6.58A6.53,6.53,0,0,1,372.08,353.89Z" style="fill:#fff"></path><path d="M373.17,345.75a3.06,3.06,0,0,1,2.55-3.51c2.17-.29,4.24,3.81-.77,6.13C374.23,348.7,373.63,348.07,373.17,345.75Z" style="fill:#b97964"></path><path d="M352.51,349.5c1.77-1.68,1.5-4.55.11-7.45s2.2-5,2.2-5,.29-3.66,3.1-5.13a9.89,9.89,0,0,1,2.85,0c3.07-3.35,8-6.13,11.86-1.74,2.29,2.59,4.55-.07,8.17,5.33,2.6,3.89.78,7.33,1.54,8.58,3.51,5.76-1,7.32-2.14,9.32,0,0-2.41-1.15-2.21-1.83,1.64-5.52-1.22-9.1-3.44-8.22s-3.81.64-5.42-1.39-.49-4.22-4.21-4.72-4.09-2.63-4.09-2.63a5.27,5.27,0,0,1-3.06,4.44c-3.11,1.63-1.89,3.59-1.45,6.36s-.94,3.84-3.35,5.85.14,3.47.14,3.47A3.11,3.11,0,0,1,352.51,349.5Z" style="fill:#263238"></path><rect x="361.5" y="374.3" width="1.2" height="6.98" transform="translate(322.95 -144.04) rotate(39.49)" style="fill:#407BFF"></rect><rect x="361.5" y="374.3" width="1.2" height="6.98" transform="translate(322.95 -144.04) rotate(39.49)" style="fill:#fff;opacity:0.30000000000000004"></rect><rect x="363.07" y="374.72" width="2.62" height="0.61" transform="translate(321.71 -146.13) rotate(39.49)" style="fill:#407BFF"></rect><rect x="363.07" y="374.72" width="2.62" height="0.61" transform="translate(321.71 -146.13) rotate(39.49)" style="fill:#fff;opacity:0.5"></rect><polygon points="363.51 380.8 358.88 376.98 359.71 379.23 361.15 380.41 363.51 380.8" style="fill:#407BFF"></polygon><rect x="358.28" y="378.65" width="6" height="0.27" transform="translate(323.4 -143.29) rotate(39.49)" style="fill:#407BFF"></rect><rect x="358.28" y="378.65" width="6" height="0.27" transform="translate(323.4 -143.29) rotate(39.49)" style="fill:#fff;opacity:0.6000000000000001"></rect><polygon points="363.51 380.8 358.88 376.98 359.71 379.23 361.15 380.41 363.51 380.8" style="fill:#fff;opacity:0.5"></polygon><polygon points="353.99 387.36 354.26 387.58 350.3 392.39 350.47 391.63 353.99 387.36" style="fill:#407BFF"></polygon><rect x="353.64" y="386.76" width="0.97" height="1.43" transform="translate(327.27 -136.76) rotate(39.49)" style="fill:#407BFF"></rect><rect x="353.64" y="386.76" width="0.97" height="1.43" transform="translate(327.27 -136.76) rotate(39.49)" style="fill:#fff;opacity:0.5"></rect><path d="M355.77,378.3h3.4a0,0,0,0,1,0,0V388a.48.48,0,0,1-.48.48h-2.45a.48.48,0,0,1-.48-.48V378.3a0,0,0,0,1,0,0Z" transform="translate(325.47 -139.82) rotate(39.5)" style="fill:#407BFF"></path><path d="M355.77,378.3h3.4a0,0,0,0,1,0,0V388a.48.48,0,0,1-.48.48h-2.45a.48.48,0,0,1-.48-.48V378.3a0,0,0,0,1,0,0Z" transform="translate(325.47 -139.82) rotate(39.5)" style="fill:#fff;opacity:0.6000000000000001"></path><path d="M374,379.59l-5-1.44s-3.32-.73-4.49-.27a35.83,35.83,0,0,0-6,3.53c-.66.68,2.9,4.92,3.61,4.86s6-3.2,6.73-3.84a2.2,2.2,0,0,0,.73-1.65l5,1.9Z" style="fill:#b97964"></path><path d="M396.29,357.27c-1.14,2.94-4.27,12.32-4.27,12.32s-.34,7.43.11,9.58-19.49-.21-19.49-.21v5.12s23.8,5.54,25.58,1.29c1.18-2.81,2.52-12.45,1.93-19.61C399.94,363.43,397.14,355.1,396.29,357.27Z" style="fill:#407BFF"></path><path d="M396.29,357.27c-1.14,2.94-4.27,12.32-4.27,12.32s-.34,7.43.11,9.58-19.49-.21-19.49-.21v5.12s23.8,5.54,25.58,1.29c1.18-2.81,2.52-12.45,1.93-19.61C399.94,363.43,397.14,355.1,396.29,357.27Z" style="fill:#fff;opacity:0.7000000000000001"></path><path d="M366.44,416.59v.14a.66.66,0,0,0,0-.14H268.26l-1.93-3.6-.27-.49L264.72,410V375.66h39.95l.36.79,3.08,6.83h0l.06.13h0l3.84,8.49,7.34,16.24h38.95a2.94,2.94,0,0,1,.51,0l.35,0a3,3,0,0,1,.52.1l.31.07a3.64,3.64,0,0,1,.47.14,2,2,0,0,1,.34.12,2.08,2.08,0,0,1,.39.15l.38.17a2.58,2.58,0,0,1,.37.19l.35.19a8,8,0,0,1,1.18.87,4.48,4.48,0,0,1,.45.41l.16.17c.14.14.27.29.4.44a.88.88,0,0,0,.12.15c.12.16.25.33.37.51a1.4,1.4,0,0,0,.12.18l.31.53a.89.89,0,0,1,.08.17,4.46,4.46,0,0,1,.28.58,7.32,7.32,0,0,1,.33.93,6.76,6.76,0,0,1,.17.68s0,.1,0,.14a5.52,5.52,0,0,1,.11.71v0C366.42,416.11,366.44,416.34,366.44,416.59Z" style="fill:#407BFF"></path><path d="M366.43,416.59H268.26l-1.95-3.6-.25-.49h0L264.72,410V375.66h39.94l.37.79,3.08,6.83.07.13h0l3.84,8.49,7.35,16.24h38.94a2.94,2.94,0,0,1,.51,0l.35,0a3,3,0,0,1,.52.1l.31.07a3.64,3.64,0,0,1,.47.14,2,2,0,0,1,.34.12,2.08,2.08,0,0,1,.39.15l.38.17a2.58,2.58,0,0,1,.37.19l.35.19a8,8,0,0,1,1.18.87,4.48,4.48,0,0,1,.45.41l.16.17c.14.14.27.29.4.44a.88.88,0,0,0,.12.15c.12.16.25.33.37.51a1.4,1.4,0,0,0,.12.18l.31.53a.89.89,0,0,1,.08.17,4.46,4.46,0,0,1,.28.58,7.32,7.32,0,0,1,.33.93,6.76,6.76,0,0,1,.17.68s0,.1,0,.14a5.52,5.52,0,0,1,.11.71v0A5.47,5.47,0,0,1,366.43,416.59Z" style="fill:#fff;opacity:0.7000000000000001"></path><path d="M366.43,416.59H351.87v-1.21a7.22,7.22,0,0,1,1.52-4.46,5.61,5.61,0,0,1,.6-.68,7.28,7.28,0,0,1,4.2-2.08h.12a2.94,2.94,0,0,1,.51,0l.35,0a3,3,0,0,1,.52.1l.31.07a3.64,3.64,0,0,1,.47.14,2,2,0,0,1,.34.12,2.08,2.08,0,0,1,.39.15l.38.17a2.58,2.58,0,0,1,.37.19l.35.19a8,8,0,0,1,1.18.87,4.48,4.48,0,0,1,.45.41l.16.17c.14.14.27.29.4.44a.88.88,0,0,0,.12.15c.12.16.25.33.37.51a1.4,1.4,0,0,0,.12.18l.31.53a.89.89,0,0,1,.08.17,4.46,4.46,0,0,1,.28.58,7.32,7.32,0,0,1,.33.93,6.76,6.76,0,0,1,.17.68s0,.1,0,.14a5.52,5.52,0,0,1,.11.71v0A5.47,5.47,0,0,1,366.43,416.59Z" style="opacity:0.2;isolation:isolate"></path><path d="M283.94,416.59H268.26l-1.95-3.6-.25-.49h0L264.72,410V382.27L278,405.92,280.8,411Z" style="fill:#fff;opacity:0.5"></path><g id="freepik--group--inject-73"><path d="M376.32,416.59h-9.88v.14a.66.66,0,0,0,0-.14H366a6.25,6.25,0,0,1-1.21-2.1c0-.86-.14-2.68-.14-2.68l-11.23-.89c-6.45-.53-13.52-1.14-14.69-1.37a6.23,6.23,0,0,1-2.08-1.4c-1.84-1.59-4.39-4.27-6.61-6.68l-.75-.82-.55-.6-.53-.59c-.69-.78-1.31-1.47-1.78-2l-1.13-1.27.84-1.57h0l1.25-2.32,2.59-4.84.31-.58.43.61h0c.79,1.11,2.53,3.58,4.33,6.15l.59.84,1.37,2c1.69,2.4,3.11,4.47,3.49,5.08,1.06,1.7,24.29,6.35,24.29,6.35s5.21.41,7.32,2.25a5.63,5.63,0,0,1,.59.6,16.92,16.92,0,0,1,1.58,2.12c.38.59.76,1.22,1.1,1.84S376.05,416,376.32,416.59Z" style="fill:#eec1bb"></path><path d="M324.49,378.11c6.11,1.48,13.42,14.49,13.42,14.49l-11.11,9Z" style="fill:#263238"></path><path d="M324.49,378.11c6.11,1.48,13.42,14.49,13.42,14.49l-11.11,9Z" style="opacity:0.2;isolation:isolate"></path><polygon points="326.71 400.71 337.91 391.16 339.68 394.49 327.74 403.12 326.71 400.71"></polygon><path d="M312.79,377.37s-3.47-6.35-16.9-3.84-10.83,7.78-6.51,9.64,19.83,0,19.83,0S313.65,379.73,312.79,377.37Z" style="fill:#263238"></path><path d="M312.79,377.37s-3.47-6.35-16.9-3.84-10.83,7.78-6.51,9.64,19.83,0,19.83,0S313.65,379.73,312.79,377.37Z" style="opacity:0.2;isolation:isolate"></path><path d="M333.61,416.59h-53.4c-.5-1.89-.95-3.77-1.35-5.62s-.66-3.39-.89-5.05c-1.4-9.44-.85-17.75,2.67-22.37a9.4,9.4,0,0,1,4.25-3.23c.37-.13.73-.27,1.11-.39a59.63,59.63,0,0,1,9.36-2.45c1.34-.24,2.66-.43,3.95-.58,2-.24,3.88-.38,5.72-.45.78,0,1.56-.06,2.3-.06H309c1.07,0,2.09.05,3.08.1s2.07.12,3,.19h0a64.61,64.61,0,0,1,9.34,1.41.42.42,0,0,0,0,.07c.13.68,1.27,6.65,2.87,14.1.46,2.12,1,4.35,1.48,6.61.07.3.14.59.22.89s.12.59.2.88.18.78.28,1.17c.5,2.14,1,4.27,1.58,6.33.58,2.24,1.17,4.38,1.77,6.35C333.1,415.21,333.35,415.91,333.61,416.59Z" style="fill:#263238"></path><path d="M307.27,383.55a17.65,17.65,0,0,1-13.08-3.74c3.35-4.12,1-14-.75-19.31l1.59,1h0l10,6.52a13,13,0,0,0,.3,5.6c.73,2.06,2.41,3.62,5.87,4C311.15,377.66,314.29,382.82,307.27,383.55Z" style="fill:#eec1bb"></path><path d="M305.28,373.67c-3.79-.33-9-3.66-9.84-7.36a13,13,0,0,1-.41-4.76l10,6.52A13,13,0,0,0,305.28,373.67Z" style="opacity:0.2;isolation:isolate"></path><path d="M307.87,346.72c-3.15,1.92-1.92,5.49,4.72,11.29,3-3.5,3.76-10.53,1.61-12.4S310.61,345.05,307.87,346.72Z" style="fill:#263238"></path><path d="M294.5,351.79c0,5.49-.22,9.31,1.07,12.56a11.56,11.56,0,0,0,2,3.33c5.29,6.09,14.68,3.26,16.92-4,.07-.23.14-.47.2-.71,1.78-6.64,1.25-17.1-5.59-20.39a10.18,10.18,0,0,0-14.64,9.25Z" style="fill:#eec1bb"></path><path d="M305.47,354.53c0,.61.26,1.12.65,1.14s.74-.44.78-1.05-.25-1.11-.64-1.14S305.55,353.94,305.47,354.53Z" style="fill:#263238"></path><path d="M312.35,355c0,.61.25,1.12.65,1.14s.75-.44.79-1.05-.26-1.12-.65-1.14S312.39,354.37,312.35,355Z" style="fill:#263238"></path><path d="M310.09,355.12a21.83,21.83,0,0,0,2.56,5.36,3.49,3.49,0,0,1-2.93.35Z" style="fill:#d58745"></path><path d="M303.73,352.24a.29.29,0,0,1-.22-.06.36.36,0,0,1-.05-.5,3.54,3.54,0,0,1,3-1.29.35.35,0,0,1,.31.38v0a.38.38,0,0,1-.4.31h0a2.77,2.77,0,0,0-2.35,1A.36.36,0,0,1,303.73,352.24Z" style="fill:#263238"></path><path d="M315.63,352.85a.35.35,0,0,1-.31-.22,2.83,2.83,0,0,0-1.9-1.73.36.36,0,0,1,.13-.71,3.56,3.56,0,0,1,2.42,2.17.35.35,0,0,1-.19.46h0Z" style="fill:#263238"></path><path d="M297.88,345.39c3.4,1.41,2.73,5.13-2.93,11.88-3.48-3-5.35-9.83-3.51-12S294.9,344.16,297.88,345.39Z" style="fill:#263238"></path><path d="M314.74,343.29c0,.84-.53,2.12-5.07,1.9s-8.23-2.89-9.84-1.93-3.83,4.62-3.83,4.62l-4.64-2a8.2,8.2,0,0,1,2.86-6.57c3.32-3.14,17.31,2.53,18.83.73A4.86,4.86,0,0,1,314.74,343.29Z" style="fill:#263238"></path><path d="M300,357.27s0,5.62-2.22,8.35c0,0,3.53,5.28,9.17,5.38s8.83-6.12,8.7-11.78C315.6,359.22,305.2,360.13,300,357.27Z" style="fill:#fff"></path><path d="M299,366.39a7.23,7.23,0,0,1-5-3.56,8.14,8.14,0,0,1-.66-7.25c.46-1.21,1.12-1.87,2-2,2.39-.27,5.34,4.12,5.47,4.3l-.42.28s-2.9-4.32-5-4.09c-.66.08-1.19.63-1.57,1.65a7.64,7.64,0,0,0,.62,6.81,6.68,6.68,0,0,0,4.66,3.32Z" style="fill:#fff"></path><path d="M290.58,357.52a7.11,7.11,0,0,0,3.1,4.44c2.11,1.32,3.86-.39,3.87-2.74,0-2.13-1.09-5.37-3.49-5.74S290.1,355.26,290.58,357.52Z" style="fill:#eec1bb"></path><path d="M307.27,383.55s-.6-3.73-9.17-7.17-15.79.39-14.76,2.9c0,0-5.56.58-2.71,4.27S307.27,383.55,307.27,383.55Z" style="fill:#263238"></path><path d="M309.21,383.17A7.76,7.76,0,0,0,308.1,375s1.28-2.35,3.82,0C311.92,375,322.1,377.61,309.21,383.17Z" style="fill:#263238"></path><path d="M307.27,383.55s-.6-3.73-9.17-7.17-15.79.39-14.76,2.9c0,0-5.56.58-2.71,4.27S307.27,383.55,307.27,383.55Z" style="opacity:0.2;isolation:isolate"></path><path d="M309.21,383.17A7.76,7.76,0,0,0,308.1,375s1.28-2.35,3.82,0C311.92,375,322.1,377.61,309.21,383.17Z" style="opacity:0.2;isolation:isolate"></path><path d="M323.16,408.64c-.36,0-6.46-.19-6.92-12.69-.42-11.68-5.06-13.65-5.11-13.66a.51.51,0,0,1-.28-.65.49.49,0,0,1,.64-.29c.21.08,5.3,2.12,5.75,14.57.42,11.55,5.86,11.72,5.92,11.72a.51.51,0,0,1,.5.5.5.5,0,0,1-.5.5Z" style="fill:#fff"></path><path d="M310.77,413.34a.53.53,0,0,1-.24-.06c-5.38-2.93-6.22-11.83-4.66-19.35,1.5-7.2-.81-11-.83-11a.49.49,0,0,1,.16-.69.49.49,0,0,1,.68.15c.11.17,2.56,4.13,1,11.77-1.49,7.15-.78,15.57,4.16,18.26a.5.5,0,0,1,.2.68A.51.51,0,0,1,310.77,413.34Z" style="fill:#fff"></path><path d="M285.83,389.09s8.46,9.7,9.5,26.29l4.62-.86S299.79,397.75,285.83,389.09Z" style="opacity:0.2;isolation:isolate"></path></g><path d="M309.43,416.59H268.26a3.58,3.58,0,0,1-3.15-2,6.6,6.6,0,0,1,1.2-1.58h0a6.89,6.89,0,0,1,4.89-2h31.35a7.47,7.47,0,0,1,1.07.09A7,7,0,0,1,309.43,416.59Z" style="fill:#407BFF"></path><path d="M309.55,416.59H268.26a3.58,3.58,0,0,1-3.15-2,2.7,2.7,0,0,1-.23-.58,5.63,5.63,0,0,1,1.17-1.49h0a5.58,5.58,0,0,1,3.83-1.52h34a2.17,2.17,0,0,1,.36,0A5.68,5.68,0,0,1,309.55,416.59Z" style="fill:#fff;opacity:0.7000000000000001"></path><path d="M309.55,416.59H298.9a5.71,5.71,0,0,1,.37-1.94,5,5,0,0,1,.62-1.19h0a5.68,5.68,0,0,1,3.75-2.39l.6-.07A5.68,5.68,0,0,1,309.55,416.59Z" style="opacity:0.2;isolation:isolate"></path></g><g id="freepik--phase-3--inject-73"><path d="M210.37,278.19V386.42a6.86,6.86,0,0,1-6.86,6.85H60.91a6.85,6.85,0,0,1-6.85-6.85V278.19a6.85,6.85,0,0,1,6.85-6.86h142.6A6.86,6.86,0,0,1,210.37,278.19Z" style="fill:#407BFF"></path><path d="M207.16,291v95.42a3.64,3.64,0,0,1-3.65,3.64H60.91a3.65,3.65,0,0,1-3.65-3.64V291a3.66,3.66,0,0,1,3.65-3.65h142.6A3.65,3.65,0,0,1,207.16,291Z" style="fill:#fff;opacity:0.4;isolation:isolate"></path><path d="M118,278.79c0,1.53-1.13,2.47-3,2.47h-1.57v2h-1.29v-6.95H115C116.82,276.32,118,277.25,118,278.79Zm-1.3,0c0-.87-.58-1.38-1.72-1.38h-1.51v2.76h1.51C116.07,280.17,116.65,279.66,116.65,278.79Z" style="fill:#fff"></path><path d="M125.42,276.32v6.95h-1.29v-3h-3.59v3h-1.3v-6.95h1.3v2.87h3.59v-2.87Z" style="fill:#fff"></path><path d="M131.8,281.66h-3.48l-.68,1.61h-1.33l3.12-6.95h1.28l3.13,6.95h-1.35Zm-.43-1-1.31-3-1.3,3Z" style="fill:#fff"></path><path d="M134.14,282.53l.45-1a3.84,3.84,0,0,0,2.29.77c1.09,0,1.54-.39,1.54-.91,0-1.5-4.13-.52-4.13-3.1,0-1.12.9-2.07,2.8-2.07a4.48,4.48,0,0,1,2.32.61l-.41,1a3.86,3.86,0,0,0-1.92-.55c-1.07,0-1.51.42-1.51.94,0,1.48,4.12.52,4.12,3.07,0,1.11-.9,2.07-2.81,2.07A4.47,4.47,0,0,1,134.14,282.53Z" style="fill:#fff"></path><path d="M146.19,282.19v1.08H141v-6.95h5.07v1.08h-3.78v1.81h3.35v1.06h-3.35v1.92Z" style="fill:#fff"></path><path d="M154.81,281.18c0,1.17-.88,2.19-2.75,2.19a4.34,4.34,0,0,1-2.61-.81l.55-1a3.26,3.26,0,0,0,2,.69c.92,0,1.47-.41,1.47-1.06s-.46-1-1.51-1h-.63v-.88l1.57-1.88h-3.15v-1.08h4.73v.86l-1.68,2A2,2,0,0,1,154.81,281.18Z" style="fill:#fff"></path><path d="M165.23,359.18c4.39-2.11,16.08-.28,18.9,2.4s-8.69,10.56-14.86,9.43S161.8,360.83,165.23,359.18Z" style="fill:#407BFF"></path><path d="M165.23,359.18c4.39-2.11,16.08-.28,18.9,2.4s-8.69,10.56-14.86,9.43S161.8,360.83,165.23,359.18Z" style="opacity:0.2;isolation:isolate"></path><path d="M193.43,363.12v26.94H149.58c.14-.46.27-.92.41-1.37l.54-1.83,0-.1c.12-.4.25-.81.36-1.23,1.2-4,2.41-7.92,3.52-11.46,1.45-4.61,2.74-8.52,3.64-10.84.31-.79,2.15-1.24,4.85-1.47l.23,0,.34,0h.06c.7,0,1.46-.09,2.27-.1.36,0,.72,0,1.09,0h0c2.42,0,5.12,0,7.85.14h0l1.25.06,1,.06.56,0,1,.05,1.59.1.47,0,.44,0,.55.05h.07l.52,0c.49,0,1,.06,1.45.11h0l.74.06.65,0h0c.29,0,.59,0,.88.08l.45,0c.44,0,.86.06,1.25.11.14,0,.28,0,.41,0l.48,0,1.33.12h0l.56.06h0l.34,0h0Z" style="fill:#407BFF"></path><path d="M193.43,363.11v26.95H149.58c.14-.46.27-.92.41-1.37l.54-1.83,0-.1c.12-.4.25-.81.36-1.23,1.2-4,2.41-7.92,3.52-11.46,1.45-4.61,2.74-8.52,3.64-10.84.31-.79,2.15-1.24,4.85-1.47l.23,0,.34,0h.06c.7,0,1.46-.09,2.27-.1.36,0,.72,0,1.09,0h0c2.42,0,5.12,0,7.85.14h0l1.25.06,1,.06.56,0,1,.05,1.59.1.47,0,.43,0,.58.05h.05l.52,0c.49,0,1,.06,1.45.11h0l.74.05.65.05h0c.29,0,.59,0,.88.08l.45,0c.44,0,.86.06,1.25.11.14,0,.28,0,.41,0l.48,0,1.33.12h0l.6,0,.32,0h0C192.51,363,193.43,363.11,193.43,363.11Z" style="fill:#fff;opacity:0.6000000000000001"></path><path d="M165.23,380.6a.93.93,0,0,1-1.86,0,.93.93,0,1,1,1.86,0Z" style="opacity:0.2;isolation:isolate"></path><path d="M162,389.87a1.23,1.23,0,0,1,0,.19h-1.83a1.23,1.23,0,0,1,0-.19.94.94,0,0,1,1.87,0Z" style="opacity:0.2;isolation:isolate"></path><path d="M193.43,382.77v7.29h-8.34a57.86,57.86,0,0,0,2.11-11.32h0A70.65,70.65,0,0,1,193.43,382.77Z" style="opacity:0.2;isolation:isolate"></path><path d="M155.35,374.66s-2.49,8.32-3.79,15.4h-2c.14-.46.27-.92.41-1.37l.54-1.83,0-.1c.12-.4.25-.81.36-1.23,1.2-4,2.41-7.92,3.52-11.46a2.71,2.71,0,0,1,.9.58Z" style="opacity:0.2;isolation:isolate"></path><path d="M183.34,363.27s-4.17,3.47-8.08,3.65-7.63,5.91-7.63,5.91-1-5.74-.71-6.25a6.81,6.81,0,0,0-.58-2h0c-.46-1.39-.81-3,.58-3,2.34,0,.71-4.75.71-4.75l13.26-3.65a20.07,20.07,0,0,0-.75,3.81C179.91,359.64,180.3,362.78,183.34,363.27Z" style="fill:#ebb376"></path><path d="M180.89,353.19a20.07,20.07,0,0,0-.75,3.81c-2.64,3.13-7.27,7.14-13.8,7.55-.46-1.39-.81-3,.58-3,2.34,0,.71-4.75.71-4.75Z" style="opacity:0.2;isolation:isolate"></path><path d="M181.78,364.05s-6.89,12.17-8.35,22.25a36.43,36.43,0,0,1,7.14,0c2.69.44.76-13.39,7.12-23.29Z" style="fill:#407BFF"></path><path d="M181.78,364.05s-6.89,12.17-8.35,22.25a36.43,36.43,0,0,1,7.14,0c2.69.44.76-13.39,7.12-23.29Z" style="opacity:0.2;isolation:isolate"></path><path d="M165.23,364.58c0,4,4.74,7.21,11.87,1.3s9-7.28,10.77-5.2c0,0,2.38.17,2.76,2.16a18.55,18.55,0,0,0-5.72,3.56c-2.26,2.26-11.82,10.6-18,9.91s-7.72-9.64-4.18-13.3c0,0,.12-5.62,5.5-3.39C168.24,359.62,165.23,360.05,165.23,364.58Z" style="fill:#407BFF"></path><path d="M181.61,389.87c-.75-.18-.23-2.67-.72-2.61s-.4,2.09-.53,2.8h-.16c-.08-.73,0-2.9-.68-3s-.16,2.26-.28,3H179c-.08-.74.38-3.06-.28-3.2s-.32,2.41-.45,3.2H178c0-.76.54-3.2-.14-3.2s-.31,2.44-.52,3.2H177c-.23-.79.43-3.38-.13-3.38s-.27,2.59-.55,3.38h-.38c-.14-.76.37-3.2-.18-3.2s-.29,2.44-.5,3.2h-.33c-.17-.77.33-3.25-.28-3.2s-.23,2.47-.49,3.2h-.32c0-.71.72-3,.15-3.26s-.93,2.46-1.12,3.26h-.12c0-.85.7-3.76.7-3.76,2.78-.93,7.17-.08,7.44,0h0S182.36,390,181.61,389.87Z" style="fill:#407BFF"></path><path d="M175.54,334.77c-7.4-1.17-10.41,2.42-12.15,10,0,.19-.13.58-.13.58-4.6,4.08-1.91,15.37,8.57,15.37C184.85,360.68,187.83,336.7,175.54,334.77Z" style="fill:#ebb376"></path><path d="M168.24,345.07a15.83,15.83,0,0,1-2.64,2.73,2.07,2.07,0,0,0,1.82,1.14Z" style="fill:#d58745"></path><path d="M172.86,345.18c-.11.6.13,1.15.54,1.23s.82-.36.93-1-.13-1.15-.54-1.23S173,344.57,172.86,345.18Z" style="fill:#263238"></path><path d="M174,344.27l-1.23-.75S173.19,344.74,174,344.27Z" style="fill:#263238"></path><path d="M165.36,343.68c-.11.61.13,1.16.53,1.23s.82-.36.93-1-.13-1.16-.53-1.23S165.47,343.08,165.36,343.68Z" style="fill:#263238"></path><path d="M166.45,342.78l-1.22-.76S165.68,343.25,166.45,342.78Z" style="fill:#263238"></path><path d="M176.78,342a.33.33,0,0,1-.28-.16,3.56,3.56,0,0,0-2.76-1.46.32.32,0,0,1-.31-.33.31.31,0,0,1,.31-.31h0a4.17,4.17,0,0,1,3.3,1.78.32.32,0,0,1-.11.44A.32.32,0,0,1,176.78,342Z" style="fill:#263238"></path><path d="M165.37,339.38a.31.31,0,0,1-.29-.19.32.32,0,0,1,.16-.42,3.79,3.79,0,0,1,3.33-.13.31.31,0,0,1,.12.43.32.32,0,0,1-.43.13,3.15,3.15,0,0,0-2.76.15A.31.31,0,0,1,165.37,339.38Z" style="fill:#263238"></path><path d="M194.9,342.71c-1.35-1.18-3.9-.51-5.75.22a1.62,1.62,0,0,0,0-.22,8.43,8.43,0,0,0-3.36-7.06c0-2.95-2.29-4.25-4.8-5s-4.7.7-7.66-.69a4.12,4.12,0,0,0-5.71,1.65c-.76,1.39-.43,3.4-2.89,3.47s-1.86,2.38-1.39,3.61.35.88-.44,2.24c-.53.93.27,1.52.84,1.8-.1.65-.12,1.05-.12,1.05.07-.35.15-.68.24-1,3.48-13.38,16.56-5.47,16.56-5.47-1.27,4.62,1.23,11.25,1.23,11.25,1.1,2.94-.52,5.91-1.54,7.38a8.46,8.46,0,0,1-.73.94,9.33,9.33,0,0,0,1.28-.94c5.27-.19,5-3,5-4a3.26,3.26,0,0,1,.59-1.23c.9,1.71,2.73,4,6,3.24C197.42,352.78,197.16,344.69,194.9,342.71Z" style="fill:#263238"></path><path d="M169.33,353.05a4.44,4.44,0,0,1-1.85-.43.36.36,0,1,1,.3-.66,3.27,3.27,0,0,0,4.19-1,.36.36,0,1,1,.6.39A4.14,4.14,0,0,1,169.33,353.05Z" style="fill:#263238"></path><path d="M174.11,348.3a1.72,1.72,0,0,1-1.22-.44,2.49,2.49,0,0,1-.53-1.94.25.25,0,0,1,.49.07,2,2,0,0,0,.39,1.51,1.49,1.49,0,0,0,1.32.26.24.24,0,0,1,.29.2.25.25,0,0,1-.2.29A3.5,3.5,0,0,1,174.11,348.3Z" style="fill:#d58745"></path><path d="M165.28,346.49a2.63,2.63,0,0,1-1.17-.31.25.25,0,0,1-.11-.33.25.25,0,0,1,.33-.12,1.44,1.44,0,0,0,2.27-.88.25.25,0,0,1,.49.13,2.21,2.21,0,0,1-1.09,1.35A1.58,1.58,0,0,1,165.28,346.49Z" style="fill:#d58745"></path><path d="M174,352.94a.26.26,0,0,1-.25-.19c-.56-2.52-3.37-3.56-3.4-3.57a.25.25,0,0,1-.15-.32.24.24,0,0,1,.32-.15c.12,0,3.09,1.13,3.72,3.93a.25.25,0,0,1-.19.3Z" style="fill:#d58745"></path><path d="M194.9,342.71c-1.35-1.18-3.9-.51-5.75.22a1.62,1.62,0,0,0,0-.22,8.43,8.43,0,0,0-3.36-7.06c0-2.95-2.29-4.25-4.8-5s-4.7.7-7.66-.69a4.12,4.12,0,0,0-5.71,1.65c-.76,1.39-.43,3.4-2.89,3.47s-1.86,2.38-1.39,3.61.35.88-.44,2.24c-.53.93.27,1.52.84,1.8-.1.65-.12,1.05-.12,1.05.07-.35.15-.68.24-1,3.48-13.38,16.56-5.47,16.56-5.47-1.27,4.62,1.23,11.25,1.23,11.25,1.1,2.94-.52,5.91-1.54,7.38a8.46,8.46,0,0,1-.73.94,9.33,9.33,0,0,0,1.28-.94c5.27-.19,5-3,5-4a3.26,3.26,0,0,1,.59-1.23c.9,1.71,2.73,4,6,3.24C197.42,352.78,197.16,344.69,194.9,342.71Z" style="fill:#fff;opacity:0.4"></path><path d="M180.21,349.89a3.28,3.28,0,0,1,4-2.42c2.25.61,2.6,5.49-3.28,5.72C180.05,353.23,179.71,352.36,180.21,349.89Z" style="fill:#ebb376"></path><g style="opacity:0.2"><path d="M176.78,342a.33.33,0,0,1-.28-.16,3.56,3.56,0,0,0-2.76-1.46.32.32,0,0,1-.31-.33.31.31,0,0,1,.31-.31h0a4.17,4.17,0,0,1,3.3,1.78.32.32,0,0,1-.11.44A.32.32,0,0,1,176.78,342Z" style="fill:#fff"></path></g><g style="opacity:0.2"><path d="M165.37,339.38a.31.31,0,0,1-.29-.19.32.32,0,0,1,.16-.42,3.79,3.79,0,0,1,3.33-.13.31.31,0,0,1,.12.43.32.32,0,0,1-.43.13,3.15,3.15,0,0,0-2.76.15A.31.31,0,0,1,165.37,339.38Z" style="fill:#fff"></path></g><path d="M199,390.06H187.24a38.88,38.88,0,0,0,0-11.32c-.1-.78-.23-1.58-.38-2.39-1.57-8.46,6.6-13.23,6.6-13.23C197.23,364.16,199.88,378.94,199,390.06Z" style="fill:#407BFF"></path><path d="M199,390.06H187.24a38.88,38.88,0,0,0,0-11.32c-.1-.78-.23-1.58-.38-2.39-1.57-8.46,6.6-13.23,6.6-13.23C197.23,364.16,199.88,378.94,199,390.06Z" style="fill:#fff;opacity:0.6000000000000001"></path><path d="M158.08,363.23s-.25,3.49-2.74,11.42c-1.24,4-3.05,9.08-5.68,15.41h-8C143.36,379,153,364.59,158.08,363.23Z" style="fill:#407BFF"></path><path d="M158.08,363.23s-.25,3.49-2.74,11.42c-1.24,4-3.05,9.08-5.68,15.41h-8C143.36,379,153,364.59,158.08,363.23Z" style="fill:#fff;opacity:0.6000000000000001"></path><path d="M85.52,334.87s2.09-4.82,8.84-4.82,12.39,4,12.06,9.16,3.54,4.66,4.19,9.65-1.77,6.27-1.93,8.36,2.57,1.45,4.34,5,4,8.52-3.54,15.11-28.94,5.47-33.61,1.45-4.5-11.74,0-13.83.32-1.77-.16-6.43,3.7-6.43,3.38-10.13S77.64,335.19,85.52,334.87Z" style="fill:#263238"></path><path d="M121.1,390.06H109.53c0-.21-.07-.41-.1-.62,0,0,0,0,0,0a1,1,0,0,1,0-.17s0-.08,0-.12c-.05-.29-.09-.57-.14-.85h0c0-.2-.07-.41-.1-.6-.24-1.4-.44-2.76-.63-4,0-.23-.07-.46-.1-.67-.13-.89-.25-1.74-.35-2.53a.07.07,0,0,0,0-.05c-.09-.65-.17-1.27-.24-1.85,0-.12,0-.23,0-.33-.15-1.17-.27-2.15-.35-2.9,0-.38-.08-.7-.11-1a1,1,0,0,0,0-.17.66.66,0,0,0,0-.14c0-.06,0-.11,0-.17s0-.24,0-.24l5.18-6.23,1.17-1.41a1.51,1.51,0,0,1,1,.48h0a1.31,1.31,0,0,1,.11.12,10.15,10.15,0,0,1,1.76,3.17c.14.36.28.74.42,1.13.2.6.41,1.23.61,1.9.52,1.79,1,3.82,1.5,5.95.11.54.22,1.07.34,1.62.17.82.34,1.64.49,2.46.11.56.2,1.11.31,1.67,0,.27.09.54.15.82.19,1.1.37,2.19.55,3.26,0,.26.09.53.13.79S121.07,389.83,121.1,390.06Z" style="fill:#263238"></path><path d="M121.11,390.06H109.53c0-.21-.07-.41-.1-.62h0v0a1,1,0,0,1,0-.17s0-.08,0-.12c-.05-.29-.09-.57-.14-.85v0c0-.21-.07-.4-.1-.59-.24-1.4-.44-2.76-.63-4,0-.23-.07-.46-.1-.67-.13-.89-.25-1.74-.35-2.53a.07.07,0,0,0,0-.05c-.08-.65-.16-1.27-.24-1.85,0-.12,0-.23,0-.33-.05-.44-.11-.85-.15-1.23,0-.22,0-.43-.07-.63s0-.29-.06-.43,0-.41-.07-.61c0-.38-.08-.7-.11-1a1,1,0,0,0,0-.17.66.66,0,0,0,0-.14c0-.06,0-.12,0-.17s0-.24,0-.24l5.18-6.23,1.17-1.41a1.51,1.51,0,0,1,1,.48h0a1.31,1.31,0,0,1,.11.12,9.91,9.91,0,0,1,1.76,3.17c.15.36.29.74.42,1.13.22.6.42,1.23.61,1.9.53,1.79,1,3.82,1.5,5.95.11.54.23,1.07.34,1.62.17.82.34,1.64.49,2.46.11.56.21,1.11.31,1.67,0,.27.09.54.15.82.19,1.1.38,2.19.55,3.26,0,.26.09.53.13.79Z" style="fill:#fff;opacity:0.4;isolation:isolate"></path><path d="M118.32,390.06h-8.79c0-.21-.07-.41-.1-.62,0,0,0,0,0,0a1,1,0,0,1,0-.17s0-.08,0-.12c-.05-.29-.09-.57-.14-.85h0c0-.2-.07-.41-.1-.6-.24-1.4-.44-2.76-.63-4,0-.23-.07-.46-.1-.67-.13-.89-.25-1.74-.35-2.53a.07.07,0,0,0,0-.05c-.08-.65-.16-1.27-.24-1.85,0-.12,0-.23,0-.33-.09-.69-.16-1.3-.22-1.86l1.36-1.22,4.21-3.72v0l.56-.49s.09.3.27.86c.25.76.63,2,1.09,3.65a.06.06,0,0,1,0,0A148.6,148.6,0,0,1,118.32,390.06Z" style="opacity:0.2;isolation:isolate"></path><path d="M113.67,390.06h-30c-.09-.35-.18-.7-.27-1.07-.6-2.38-1.34-5-2.28-8-.06-.23-.14-.47-.21-.71-.21-.7-.44-1.42-.67-2.16-.37-1.13-.75-2.33-1.17-3.57-.51-1.54-1.06-3.2-1.67-4.94l1.62-.5q2.78-.82,5.58-1.43c1.28-.28,2.55-.53,3.83-.74h0l.09,0,1.35-.23h0l1-.15c2.65-.39,5.32-.66,8-.81l1.73-.07H102l1.22,0h0c1.17,0,2.32.07,3.38.14h0c2.9.16,5.1.37,5.1.37s.29.07.65,1.23a23.41,23.41,0,0,1,.7,4v0c0,.16,0,.33,0,.5,0,.35.07.71.1,1.12h0c0,.21,0,.44,0,.67.06.74.11,1.55.15,2.45,0,.29,0,.59,0,.89,0,.72.07,1.49.1,2.31,0,.64,0,1.32.05,2,0,.35,0,.72,0,1.08C113.71,384.68,113.71,387.21,113.67,390.06Z" style="fill:#263238"></path><path d="M113.72,390.06H83.64c-.09-.35-.18-.7-.27-1.07-.6-2.38-1.34-5-2.28-8-.06-.23-.14-.47-.21-.71-.21-.7-.44-1.42-.67-2.16-.37-1.13-.75-2.33-1.17-3.57-.51-1.54-1.06-3.2-1.67-4.94l1.62-.5q2.78-.82,5.58-1.43c1.28-.28,2.55-.53,3.83-.74h0l.09,0,1.35-.23h0l1-.15c2.65-.39,5.32-.66,8-.81l1.73-.07H102l1.22,0h0c1.17,0,2.32.07,3.38.14h0c2.9.16,5.1.37,5.1.37s.29.07.65,1.23a23.41,23.41,0,0,1,.7,4v0c0,.16,0,.33,0,.5,0,.35.07.71.1,1.12h0c0,.21,0,.44,0,.67.06.74.11,1.55.15,2.45,0,.29,0,.59,0,.89,0,.72.07,1.49.1,2.31,0,.64,0,1.32.05,2,0,.35,0,.72,0,1.08C113.72,384.7,113.74,387.24,113.72,390.06Z" style="fill:#407BFF"></path><g style="opacity:0.1;isolation:isolate"><path d="M113.67,390.06h-30c-.09-.35-.18-.7-.27-1.07-.6-2.38-1.34-5-2.28-8-.06-.23-.14-.47-.21-.71-.21-.7-.44-1.42-.67-2.16-.37-1.13-.75-2.33-1.17-3.57-.51-1.54-1.06-3.2-1.67-4.94l1.62-.5q2.78-.82,5.58-1.43c1.28-.28,2.55-.53,3.83-.74h0l.09,0,1.35-.23h0l1-.15c2.65-.39,5.32-.66,8-.81l1.73-.07H102l1.22,0h0c1.17,0,2.32.07,3.38.14h0c2.9.16,5.1.37,5.1.37s.29.07.65,1.23a23.41,23.41,0,0,1,.7,4v0c0,.16,0,.33,0,.5,0,.35.07.71.1,1.12h0c0,.21,0,.44,0,.67.06.74.11,1.55.15,2.45,0,.29,0,.59,0,.89,0,.72.07,1.49.1,2.31,0,.64,0,1.32.05,2,0,.35,0,.72,0,1.08C113.71,384.68,113.71,387.21,113.67,390.06Z" style="fill:#fff"></path></g><path d="M98.34,371.54c-6.62-.85-8.6-3.67-8.6-3.67,4.19-4,.7-10.82.7-10.82l8,1.49a25.83,25.83,0,0,0-.31,3.35c-.06,4.83,2.13,4.87,2.13,4.87C101.62,369.38,98.34,371.54,98.34,371.54Z" style="fill:#e4897b"></path><path d="M98.4,358.54a25.83,25.83,0,0,0-.31,3.35c-5.37,0-7.65-4.84-7.65-4.84Z" style="opacity:0.2;isolation:isolate"></path><path d="M94,336.28c6.92-.38,9.35,3.2,10.25,10.3,1.12,8.88-.51,15.32-9.26,13.89C83.1,358.53,82.51,336.91,94,336.28Z" style="fill:#e4897b"></path><path d="M99.76,346.44a14.6,14.6,0,0,0,2.17,2.76,1.88,1.88,0,0,1-1.78.88Z" style="fill:#a24e3f"></path><path d="M95.49,346.11c.05.57-.23,1.05-.6,1.08s-.72-.41-.77-1,.23-1.06.61-1.09S95.45,345.54,95.49,346.11Z" style="fill:#263238"></path><path d="M94.57,345.17l1.2-.58S95.23,345.68,94.57,345.17Z" style="fill:#263238"></path><path d="M102.54,345.44c0,.57-.23,1.05-.61,1.08s-.72-.41-.76-1,.22-1.06.6-1.09S102.49,344.87,102.54,345.44Z" style="fill:#263238"></path><path d="M101.62,344.5l1.19-.58S102.28,345,101.62,344.5Z" style="fill:#263238"></path><path d="M92.22,342.91a.44.44,0,0,1-.22-.07.38.38,0,0,1-.08-.51A4,4,0,0,1,95.19,341a.37.37,0,0,1-.06.73,3.28,3.28,0,0,0-2.62,1.06A.35.35,0,0,1,92.22,342.91Z" style="fill:#2e353a"></path><path d="M103,341.55a.41.41,0,0,1-.18-.05,2.87,2.87,0,0,0-2.47-.4.36.36,0,0,1-.47-.19.37.37,0,0,1,.19-.48,3.6,3.6,0,0,1,3.12.44.36.36,0,0,1,.12.5A.35.35,0,0,1,103,341.55Z" style="fill:#2e353a"></path><path d="M99.29,352.86a17.09,17.09,0,0,0-.68,2.45l-.45,0c-2-.09-2.93-.8-3.32-1.56a2.59,2.59,0,0,1-.27-1.21,2.72,2.72,0,0,1,.09-.71,9.44,9.44,0,0,0,3.94,1C99,352.86,99.29,352.86,99.29,352.86Z" style="fill:#263238"></path><path d="M98.6,352.82l-.22.72c-1.91-.1-3.24-.42-3.81-1a2.72,2.72,0,0,1,.09-.71A9.44,9.44,0,0,0,98.6,352.82Z" style="fill:#fff"></path><path d="M98.16,355.29c-2-.09-2.93-.8-3.32-1.56a6.33,6.33,0,0,1,2.22.54A2.45,2.45,0,0,1,98.16,355.29Z" style="fill:#de5753"></path><path d="M87.08,348.35s2.93-5.86,2.19-10.22c0,0,13.41-6.35,14.85,7.53,0,0,.66-12.43-11.25-12.06S82,351.38,88.39,356.23C88.39,356.23,85.27,352,87.08,348.35Z" style="fill:#263238"></path><path d="M86.38,335.62s5.41-4.82,10.34-3.91,4.08,7.39-2.41,9.86-7.82,5.63-7.82,5.63l-5.63-5Z" style="fill:#263238"></path><path d="M85.22,347.56c0-.08-.36-2.05,4.4-3.71,4.38-1.53,9.35-3.26,10-6.57a3.33,3.33,0,0,0-.34-2.65,1.67,1.67,0,0,0-1.1-.65l0-.49a2.13,2.13,0,0,1,1.45.82,3.77,3.77,0,0,1,.44,3.06c-.68,3.6-5.79,5.38-10.3,7-4.28,1.49-4.07,3.12-4.07,3.13Z" style="fill:#263238"></path><path d="M88.29,349.75a3,3,0,0,0-3.42-2.59c-2.13.35-2.91,4.81,2.48,5.57C88.12,352.84,88.52,352.07,88.29,349.75Z" style="fill:#e4897b"></path><path d="M83.6,368.6s7.77,6.3,15,6.2,9.77-8.23,9.77-8.23A41.23,41.23,0,0,0,83.6,368.6Z" style="fill:#e4897b"></path><path d="M90.16,390.06H78.1l-.75-10.37-.78-10.52,1.92-.45,6.27-1.49,3.57-.84c0,.08,0,.24.07.48v0h0s0,.07,0,.12,0,.05,0,.08,0,.21,0,.33a3.37,3.37,0,0,1,.06.36c0,.18,0,.37.08.58s.07.44.1.68a.28.28,0,0,1,0,.09c.06.49.14,1,.21,1.64,0,.2.06.4.08.62a1,1,0,0,1,0,.18c0,.18,0,.35,0,.53s.08.62.11.95c.06.51.12,1.06.17,1.64,0,.27.06.57.09.87,0,.47.08,1,.12,1.46.07.78.13,1.6.18,2.44s.11,1.66.15,2.54c0,.25,0,.5,0,.75s0,.77.05,1.16c0,.78.06,1.59.09,2.42,0,.41,0,.84,0,1.26s0,.85,0,1.29S90.16,389.67,90.16,390.06Z" style="fill:#263238"></path><path d="M90.17,390.06H78.11l-.76-10.37L77,374.43l-.39-5.26,1.92-.45,6.27-1.49,3.57-.84c0,.08,0,.24.07.48a0,0,0,0,1,0,0s0,.06,0,.11h0s0,.05,0,.08,0,.21,0,.33a3.37,3.37,0,0,1,.06.36c0,.18,0,.37.08.58s.07.44.1.68a.28.28,0,0,1,0,.09c.07.49.15,1,.21,1.64,0,.2.06.4.08.62a1,1,0,0,1,0,.18l.06.54c0,.3.08.61.1.94.06.51.12,1.06.17,1.64,0,.27.06.57.09.87,0,.47.08,1,.12,1.46.07.78.13,1.6.18,2.44s.11,1.66.15,2.54c0,.25,0,.5,0,.75s0,.77.05,1.16c0,.78.06,1.59.09,2.42,0,.41,0,.84,0,1.26s0,.85,0,1.29S90.16,389.67,90.17,390.06Z" style="fill:#fff;opacity:0.4;isolation:isolate"></path><path d="M116.13,390.06h-6.58c0-.21-.07-.41-.12-.62,0,0,0,0,0,0a1,1,0,0,1,0-.17s0-.08,0-.12l-.16-.77c-.52-2.53-1.07-4.92-1.6-7.14-.15-.6-.29-1.19-.43-1.75,0-.17-.08-.33-.13-.5h0c-.1-.4-.2-.78-.29-1.17l-.35-1.32c0-.1,0-.18-.07-.27-.07-.26-.13-.51-.2-.76-.19-.71-.38-1.39-.56-2-.06-.24-.13-.47-.19-.7s-.16-.57-.24-.84c-.54-1.91-1-3.46-1.36-4.57l-.14-.44c-.14-.46-.26-.82-.34-1.07a.43.43,0,0,1,0,0l0-.07v0c0-.05,0-.09,0-.13a1,1,0,0,0,0-.16l3.28.2h0l7.14.45c.21,1.07.41,2.16.59,3.26.07.45.15.9.22,1.34,0,.11,0,.21,0,.31.23,1.49.43,3,.6,4.51a.06.06,0,0,1,0,0c.06.45.11.91.15,1.36.08.62.13,1.23.19,1.85.15,1.51.27,3,.38,4.54,0,.72.1,1.44.14,2.15.08,1.43.16,2.85.21,4.25C116.12,389.74,116.12,389.9,116.13,390.06Z" style="fill:#263238"></path><path d="M116.12,390.06h-6.56c0-.21-.08-.44-.13-.65a1,1,0,0,1,0-.17s0-.08,0-.12l-.16-.77c-.52-2.53-1.07-4.92-1.6-7.14-.15-.6-.29-1.19-.43-1.75,0-.17-.08-.33-.13-.5h0c-.1-.4-.2-.78-.29-1.17l-.35-1.32c0-.1,0-.18-.07-.27-.07-.26-.14-.51-.2-.76-.19-.71-.38-1.39-.56-2l-.19-.7q-.12-.44-.24-.84c-.54-1.91-1-3.46-1.36-4.57l-.14-.44c-.14-.46-.26-.82-.34-1.07a.43.43,0,0,1,0,0,.13.13,0,0,1,0-.07l0,0a.68.68,0,0,0,0-.13,1,1,0,0,0,0-.16h0l3.28.21,7.14.46c.21,1.07.41,2.16.59,3.26.07.45.15.9.21,1.34,0,.11,0,.21.05.31.23,1.49.43,3,.6,4.51a.06.06,0,0,1,0,0c.06.45.11.91.15,1.36.08.62.13,1.23.19,1.85.15,1.51.27,3,.38,4.54,0,.72.1,1.44.14,2.15.08,1.43.16,2.85.21,4.25C116.11,389.75,116.12,389.91,116.12,390.06Z" style="fill:#fff;opacity:0.4;isolation:isolate"></path><path d="M90.17,390.06h-.3l-4.33-8.35-1-1.9L87.29,376l-4.82-3.62L84,368.91l.24-.56.32-.71.19-.41,3.57-.84c0,.08,0,.24.07.48a0,0,0,0,1,0,0s0,.06,0,.11h0s0,.05,0,.08,0,.21,0,.33a3.37,3.37,0,0,1,.06.36c0,.18,0,.37.08.58s.07.44.1.68a.28.28,0,0,1,0,.09c.07.49.15,1,.21,1.64,0,.2.06.4.08.62a1,1,0,0,1,0,.18l.06.54c0,.3.08.61.1.94.06.51.12,1.06.17,1.64,0,.27.06.57.09.87,0,.47.08,1,.12,1.46.07.78.13,1.6.18,2.44s.11,1.66.15,2.54c0,.25,0,.5,0,.75s0,.77.05,1.16c0,.78.06,1.59.09,2.42,0,.41,0,.84,0,1.26s0,.85,0,1.29S90.16,389.67,90.17,390.06Z" style="fill:#fff;opacity:0.5;isolation:isolate"></path><path d="M103.16,365.31a218.41,218.41,0,0,1,6,23l2-11.11-4-3.62,2.57-4-3.37-4.08Z" style="fill:#fff;opacity:0.5;isolation:isolate"></path><path d="M82.26,390.06H78.1l-.75-10.37L77,374.43c.06,0,.17.07.2.16.47,1.64,1.09,3.6,1.82,5.77.4,1.22.84,2.52,1.3,3.86C80.91,386.09,81.58,388.06,82.26,390.06Z" style="opacity:0.2;isolation:isolate"></path><path d="M80.28,384.22c0,1.93,0,3.91,0,5.84H69.44c.24-2.23.49-4.25.69-5.85a37.58,37.58,0,0,1,2.6-10.6c1.83-4.1,4.08-5.4,5.76-4.89l.16,0a.7.7,0,0,1,.34.31c.74,1.05,1.08,4.56,1.22,9,0,.86,0,1.75.05,2.67C80.28,381.87,80.28,383,80.28,384.22Z" style="fill:#263238"></path><path d="M80.28,384.22c0,1.93,0,3.91,0,5.84H69.44c.24-2.23.49-4.25.69-5.85a37.58,37.58,0,0,1,2.6-10.6c1.83-4.1,4.08-5.4,5.76-4.89l.16,0a.7.7,0,0,1,.34.31c.74,1.05,1.08,4.56,1.22,9,0,.86,0,1.75.05,2.67C80.28,381.87,80.28,383,80.28,384.22Z" style="fill:#fff;opacity:0.4;isolation:isolate"></path><path d="M138.49,307.78a17.85,17.85,0,0,0,25,19.52l3.4,2.75-.76-4.25a17.86,17.86,0,1,0-27.67-18Z" style="fill:#fff"></path><path d="M163.39,308.46l-2.46,1a.64.64,0,0,1-.24-.27.53.53,0,0,1,0-.36l2.58-.71Z" style="fill:#407BFF"></path><path d="M163.39,308.46l-2.46,1a.64.64,0,0,1-.24-.27.53.53,0,0,1,0-.36l2.58-.71Z" style="fill:#fff;opacity:0.1"></path><path d="M163.26,307.9c-.12,0-.15.25-.08.46s.23.36.35.32.15-.25.07-.46S163.38,307.86,163.26,307.9Z" style="fill:#407BFF"></path><path d="M163.26,307.9c-.12,0-.15.25-.08.46s.23.36.35.32.15-.25.07-.46S163.38,307.86,163.26,307.9Z" style="fill:#fff;opacity:0.1"></path><path d="M160.05,304.25l-1.17,2.4a.59.59,0,0,1-.36,0,.47.47,0,0,1-.22-.28l1.47-2.23Z" style="fill:#407BFF"></path><path d="M160.05,304.25l-1.17,2.4a.59.59,0,0,1-.36,0,.47.47,0,0,1-.22-.28l1.47-2.23Z" style="fill:#fff;opacity:0.1"></path><path d="M159.58,303.92c-.06.11,0,.28.25.4s.4.11.47,0-.05-.29-.25-.4S159.64,303.81,159.58,303.92Z" style="fill:#407BFF"></path><path d="M159.58,303.92c-.06.11,0,.28.25.4s.4.11.47,0-.05-.29-.25-.4S159.64,303.81,159.58,303.92Z" style="fill:#fff;opacity:0.1"></path><path d="M152.18,304l1.29,2.34a.58.58,0,0,1-.25.26.45.45,0,0,1-.35,0l-1-2.49Z" style="fill:#407BFF"></path><path d="M152.18,304l1.29,2.34a.58.58,0,0,1-.25.26.45.45,0,0,1-.35,0l-1-2.49Z" style="fill:#fff;opacity:0.1"></path><path d="M151.64,304.23c.05.11.26.12.46,0s.33-.26.28-.37-.26-.12-.47,0S151.58,304.12,151.64,304.23Z" style="fill:#407BFF"></path><path d="M151.64,304.23c.05.11.26.12.46,0s.33-.26.28-.37-.26-.12-.47,0S151.58,304.12,151.64,304.23Z" style="fill:#fff;opacity:0.1"></path><path d="M149.15,307.3l2.47,1a.59.59,0,0,1,0,.36.51.51,0,0,1-.27.24L149,307.59Z" style="fill:#407BFF"></path><path d="M149.15,307.3l2.47,1a.59.59,0,0,1,0,.36.51.51,0,0,1-.27.24L149,307.59Z" style="fill:#fff;opacity:0.1"></path><path d="M148.84,307.79c.11,0,.28-.07.38-.27s.09-.42,0-.47-.28.07-.38.27S148.73,307.73,148.84,307.79Z" style="fill:#407BFF"></path><path d="M148.84,307.79c.11,0,.28-.07.38-.27s.09-.42,0-.47-.28.07-.38.27S148.73,307.73,148.84,307.79Z" style="fill:#fff;opacity:0.1"></path><path d="M149.11,312.52l2.49-1a.64.64,0,0,1,.23.28.5.5,0,0,1,0,.36l-2.59.66Z" style="fill:#407BFF"></path><path d="M149.11,312.52l2.49-1a.64.64,0,0,1,.23.28.5.5,0,0,1,0,.36l-2.59.66Z" style="fill:#fff;opacity:0.1"></path><path d="M149.23,313.08c.12,0,.16-.24.09-.46s-.22-.36-.34-.32-.15.25-.08.46S149.12,313.12,149.23,313.08Z" style="fill:#407BFF"></path><path d="M149.23,313.08c.12,0,.16-.24.09-.46s-.22-.36-.34-.32-.15.25-.08.46S149.12,313.12,149.23,313.08Z" style="fill:#fff;opacity:0.1"></path><path d="M156,319.24l-.3-2.65a.6.6,0,0,1,.33-.15.48.48,0,0,1,.34.12l-.05,2.67Z" style="fill:#407BFF"></path><path d="M156,319.24l-.3-2.65a.6.6,0,0,1,.33-.15.48.48,0,0,1,.34.12l-.05,2.67Z" style="fill:#fff;opacity:0.1"></path><path d="M156.54,319.27c0-.12-.19-.21-.42-.2s-.4.12-.4.24.2.22.42.21S156.55,319.4,156.54,319.27Z" style="fill:#407BFF"></path><path d="M156.54,319.27c0-.12-.19-.21-.42-.2s-.4.12-.4.24.2.22.42.21S156.55,319.4,156.54,319.27Z" style="fill:#fff;opacity:0.1"></path><path d="M162.15,314.8l-2.3-1.35a.59.59,0,0,1,.07-.36.5.5,0,0,1,.3-.2l2.11,1.64Z" style="fill:#407BFF"></path><path d="M162.15,314.8l-2.3-1.35a.59.59,0,0,1,.07-.36.5.5,0,0,1,.3-.2l2.11,1.64Z" style="fill:#fff;opacity:0.1"></path><path d="M162.52,314.36c-.1-.07-.29,0-.41.21s-.15.4-.05.47.29,0,.41-.22S162.62,314.43,162.52,314.36Z" style="fill:#407BFF"></path><path d="M162.52,314.36c-.1-.07-.29,0-.41.21s-.15.4-.05.47.29,0,.41-.22S162.62,314.43,162.52,314.36Z" style="fill:#fff;opacity:0.1"></path><path d="M151.49,316.46l1.38-2.29a.6.6,0,0,1,.35.08.5.5,0,0,1,.2.3l-1.67,2.09Z" style="fill:#407BFF"></path><path d="M151.49,316.46l1.38-2.29a.6.6,0,0,1,.35.08.5.5,0,0,1,.2.3l-1.67,2.09Z" style="fill:#fff;opacity:0.1"></path><path d="M151.92,316.83c.07-.1,0-.28-.21-.41s-.39-.16-.46-.06,0,.29.21.42S151.85,316.93,151.92,316.83Z" style="fill:#407BFF"></path><path d="M151.92,316.83c.07-.1,0-.28-.21-.41s-.39-.16-.46-.06,0,.29.21.42S151.85,316.93,151.92,316.83Z" style="fill:#fff;opacity:0.1"></path><path d="M156.73,304.58a6.24,6.24,0,1,0,5.45,6.94A6.25,6.25,0,0,0,156.73,304.58Z" style="fill:#407BFF"></path><path d="M156.73,304.58a6.24,6.24,0,1,0,5.45,6.94A6.25,6.25,0,0,0,156.73,304.58Z" style="fill:#fff;opacity:0.2"></path><path d="M164.29,311.94l-2.67-.15a.61.61,0,0,1-.09-.35.52.52,0,0,1,.17-.31l2.63.49Z" style="fill:#407BFF"></path><path d="M164.29,311.94l-2.67-.15a.61.61,0,0,1-.09-.35.52.52,0,0,1,.17-.31l2.63.49Z" style="fill:#fff;opacity:0.4"></path><path d="M164.42,311.38c-.12,0-.24.15-.27.38s0,.42.17.43.24-.15.27-.38S164.54,311.39,164.42,311.38Z" style="fill:#407BFF"></path><path d="M164.42,311.38c-.12,0-.24.15-.27.38s0,.42.17.43.24-.15.27-.38S164.54,311.39,164.42,311.38Z" style="fill:#fff;opacity:0.2"></path><path d="M161.9,306.72,160,308.6a.61.61,0,0,1-.32-.16.48.48,0,0,1-.12-.34l2.12-1.63Z" style="fill:#407BFF"></path><path d="M161.9,306.72,160,308.6a.61.61,0,0,1-.32-.16.48.48,0,0,1-.12-.34l2.12-1.63Z" style="fill:#fff;opacity:0.4"></path><path d="M161.57,306.25c-.09.08,0,.28.1.45s.35.25.44.17,0-.29-.1-.46S161.66,306.17,161.57,306.25Z" style="fill:#407BFF"></path><path d="M161.57,306.25c-.09.08,0,.28.1.45s.35.25.44.17,0-.29-.1-.46S161.66,306.17,161.57,306.25Z" style="fill:#fff;opacity:0.2"></path><path d="M161,317.52l-1.66-2.09a.57.57,0,0,1,.2-.3.48.48,0,0,1,.35-.08l1.38,2.29Z" style="fill:#407BFF"></path><path d="M161,317.52l-1.66-2.09a.57.57,0,0,1,.2-.3.48.48,0,0,1,.35-.08l1.38,2.29Z" style="fill:#fff;opacity:0.4"></path><path d="M161.46,317.24c-.07-.1-.28-.08-.47.05s-.28.32-.21.42.28.08.47,0S161.53,317.34,161.46,317.24Z" style="fill:#407BFF"></path><path d="M161.46,317.24c-.07-.1-.28-.08-.47.05s-.28.32-.21.42.28.08.47,0S161.53,317.34,161.46,317.24Z" style="fill:#fff;opacity:0.2"></path><path d="M157.77,317.65l-.76-2a.69.69,0,0,1,.29-.19.53.53,0,0,1,.35,0l.43,2.13Z" style="fill:#407BFF"></path><path d="M157.77,317.65l-.76-2a.69.69,0,0,1,.29-.19.53.53,0,0,1,.35,0l.43,2.13Z" style="fill:#fff;opacity:0.4"></path><path d="M158.31,317.47c0-.14-.25-.2-.47-.14s-.36.22-.32.36.24.2.46.13S158.35,317.6,158.31,317.47Z" style="fill:#407BFF"></path><path d="M158.31,317.47c0-.14-.25-.2-.47-.14s-.36.22-.32.36.24.2.46.13S158.35,317.6,158.31,317.47Z" style="fill:#fff;opacity:0.2"></path><path d="M159.86,313.62l-.9-.3s-.13-.25,0-.41a.46.46,0,0,1,.37-.18l.72.61Z" style="fill:#407BFF"></path><path d="M159.86,313.62l-.9-.3s-.13-.25,0-.41a.46.46,0,0,1,.37-.18l.72.61Z" style="fill:#fff;opacity:0.5"></path><path d="M160,313a.41.41,0,1,0,.11.53A.39.39,0,0,0,160,313Z" style="fill:#407BFF"></path><path d="M160,313a.41.41,0,1,0,.11.53A.39.39,0,0,0,160,313Z" style="fill:#fff;opacity:0.30000000000000004"></path><path d="M160.66,310.2l-.87.38s-.26-.1-.3-.28a.45.45,0,0,1,.15-.38l1,0Z" style="fill:#407BFF"></path><path d="M160.66,310.2l-.87.38s-.26-.1-.3-.28a.45.45,0,0,1,.15-.38l1,0Z" style="fill:#fff;opacity:0.5"></path><path d="M160.32,309.69a.39.39,0,0,0-.26.48.36.36,0,1,0,.26-.48Z" style="fill:#407BFF"></path><path d="M160.32,309.69a.39.39,0,0,0-.26.48.36.36,0,1,0,.26-.48Z" style="fill:#fff;opacity:0.30000000000000004"></path><path d="M158.44,307.19l-.31.89s-.25.13-.41,0a.45.45,0,0,1-.17-.37l.61-.72Z" style="fill:#407BFF"></path><path d="M158.44,307.19l-.31.89s-.25.13-.41,0a.45.45,0,0,1-.17-.37l.61-.72Z" style="fill:#fff;opacity:0.5"></path><path d="M157.84,307.1a.41.41,0,0,0,.71.4.38.38,0,0,0-.18-.51A.37.37,0,0,0,157.84,307.1Z" style="fill:#407BFF"></path><path d="M157.84,307.1a.41.41,0,0,0,.71.4.38.38,0,0,0-.18-.51A.37.37,0,0,0,157.84,307.1Z" style="fill:#fff;opacity:0.30000000000000004"></path><path d="M153.68,307.36l.73.6a.51.51,0,0,1-.11.39.47.47,0,0,1-.41,0l-.46-.83Z" style="fill:#407BFF"></path><path d="M153.68,307.36l.73.6a.51.51,0,0,1-.11.39.47.47,0,0,1-.41,0l-.46-.83Z" style="fill:#fff;opacity:0.5"></path><path d="M153.38,307.89a.42.42,0,1,0,.08-.54A.39.39,0,0,0,153.38,307.89Z" style="fill:#407BFF"></path><path d="M153.38,307.89a.42.42,0,1,0,.08-.54A.39.39,0,0,0,153.38,307.89Z" style="fill:#fff;opacity:0.30000000000000004"></path><path d="M152.31,310.92l.89-.29s.25.12.28.3a.48.48,0,0,1-.19.36l-.94-.05Z" style="fill:#407BFF"></path><path d="M152.31,310.92l.89-.29s.25.12.28.3a.48.48,0,0,1-.19.36l-.94-.05Z" style="fill:#fff;opacity:0.5"></path><path d="M152.6,311.46a.42.42,0,1,0-.42-.36A.4.4,0,0,0,152.6,311.46Z" style="fill:#407BFF"></path><path d="M152.6,311.46a.42.42,0,1,0-.42-.36A.4.4,0,0,0,152.6,311.46Z" style="fill:#fff;opacity:0.30000000000000004"></path><path d="M153.26,313.63l.45-.83s.27-.08.41,0a.44.44,0,0,1,.11.39l-.72.6Z" style="fill:#407BFF"></path><path d="M153.26,313.63l.45-.83s.27-.08.41,0a.44.44,0,0,1,.11.39l-.72.6Z" style="fill:#fff;opacity:0.5"></path><path d="M153.84,313.83a.42.42,0,1,0-.55,0A.4.4,0,0,0,153.84,313.83Z" style="fill:#407BFF"></path><path d="M153.84,313.83a.42.42,0,1,0-.55,0A.4.4,0,0,0,153.84,313.83Z" style="fill:#fff;opacity:0.30000000000000004"></path><path d="M155.85,314.67l-.1-.94s.17-.22.35-.2.31.26.31.26l-.24.91Z" style="fill:#407BFF"></path><path d="M155.85,314.67l-.1-.94s.17-.22.35-.2.31.26.31.26l-.24.91Z" style="fill:#fff;opacity:0.5"></path><path d="M156.43,314.5a.37.37,0,0,0-.38-.39.38.38,0,0,0-.43.33.39.39,0,0,0,.38.39A.38.38,0,0,0,156.43,314.5Z" style="fill:#407BFF"></path><path d="M156.43,314.5a.37.37,0,0,0-.38-.39.38.38,0,0,0-.43.33.39.39,0,0,0,.38.39A.38.38,0,0,0,156.43,314.5Z" style="fill:#fff;opacity:0.30000000000000004"></path><path d="M158,303.21l-.52,2.62a.61.61,0,0,1-.36.05.53.53,0,0,1-.29-.22l.86-2.53Z" style="fill:#407BFF"></path><path d="M158,303.21l-.52,2.62a.61.61,0,0,1-.36.05.53.53,0,0,1-.29-.22l.86-2.53Z" style="fill:#fff;opacity:0.4"></path><path d="M157.49,303c0,.12.12.26.34.32s.42,0,.46-.11-.12-.26-.34-.32S157.53,302.89,157.49,303Z" style="fill:#407BFF"></path><path d="M157.49,303c0,.12.12.26.34.32s.42,0,.46-.11-.12-.26-.34-.32S157.53,302.89,157.49,303Z" style="fill:#fff;opacity:0.2"></path><path d="M154.56,303.77l.74,2.57a.59.59,0,0,1-.29.2.52.52,0,0,1-.36-.06l-.4-2.64Z" style="fill:#407BFF"></path><path d="M154.56,303.77l.74,2.57a.59.59,0,0,1-.29.2.52.52,0,0,1-.36-.06l-.4-2.64Z" style="fill:#fff;opacity:0.4"></path><path d="M154,303.83c0,.12.23.18.45.13s.38-.18.36-.3-.23-.18-.45-.13S154,303.71,154,303.83Z" style="fill:#407BFF"></path><path d="M154,303.83c0,.12.23.18.45.13s.38-.18.36-.3-.23-.18-.45-.13S154,303.71,154,303.83Z" style="fill:#fff;opacity:0.2"></path><path d="M147.8,310.07l2.66-.14a.57.57,0,0,1,.13.33.46.46,0,0,1-.14.33l-2.66-.2Z" style="fill:#407BFF"></path><path d="M147.8,310.07l2.66-.14a.57.57,0,0,1,.13.33.46.46,0,0,1-.14.33l-2.66-.2Z" style="fill:#fff;opacity:0.4"></path><path d="M147.73,310.64c.12,0,.22-.19.23-.41s-.1-.41-.22-.41-.22.18-.23.4S147.61,310.63,147.73,310.64Z" style="fill:#407BFF"></path><path d="M147.73,310.64c.12,0,.22-.19.23-.41s-.1-.41-.22-.41-.22.18-.23.4S147.61,310.63,147.73,310.64Z" style="fill:#fff;opacity:0.2"></path><path d="M153.07,318.14l.81-2.55a.56.56,0,0,1,.36,0,.51.51,0,0,1,.26.25l-1.14,2.41Z" style="fill:#407BFF"></path><path d="M153.07,318.14l.81-2.55a.56.56,0,0,1,.36,0,.51.51,0,0,1,.26.25l-1.14,2.41Z" style="fill:#fff;opacity:0.4"></path><path d="M153.58,318.4c0-.11-.09-.27-.31-.36s-.41-.05-.46.06.09.27.3.36S153.53,318.51,153.58,318.4Z" style="fill:#407BFF"></path><path d="M153.58,318.4c0-.11-.09-.27-.31-.36s-.41-.05-.46.06.09.27.3.36S153.53,318.51,153.58,318.4Z" style="fill:#fff;opacity:0.2"></path><path d="M149.81,305.09l2.1,1.66a.55.55,0,0,1-.13.34.5.5,0,0,1-.32.16l-1.86-1.92Z" style="fill:#407BFF"></path><path d="M149.81,305.09l2.1,1.66a.55.55,0,0,1-.13.34.5.5,0,0,1-.32.16l-1.86-1.92Z" style="fill:#fff;opacity:0.4"></path><path d="M149.39,305.48c.09.08.28,0,.44-.16s.2-.37.11-.45-.29,0-.44.16S149.3,305.4,149.39,305.48Z" style="fill:#407BFF"></path><path d="M149.39,305.48c.09.08.28,0,.44-.16s.2-.37.11-.45-.29,0-.44.16S149.3,305.4,149.39,305.48Z" style="fill:#fff;opacity:0.2"></path><path d="M149.06,315.91l2-1.81a.56.56,0,0,1,.32.18.46.46,0,0,1,.1.34l-2.18,1.54Z" style="fill:#407BFF"></path><path d="M149.06,315.91l2-1.81a.56.56,0,0,1,.32.18.46.46,0,0,1,.1.34l-2.18,1.54Z" style="fill:#fff;opacity:0.4"></path><path d="M149.37,316.39c.09-.08.06-.28-.09-.46s-.33-.26-.43-.18,0,.28.09.46S149.27,316.47,149.37,316.39Z" style="fill:#407BFF"></path><path d="M149.37,316.39c.09-.08.06-.28-.09-.46s-.33-.26-.43-.18,0,.28.09.46S149.27,316.47,149.37,316.39Z" style="fill:#fff;opacity:0.2"></path><path d="M157.43,312.07a.42.42,0,0,0-.47.37.43.43,0,0,0,.37.47.43.43,0,0,0,.47-.37A.41.41,0,0,0,157.43,312.07Z" style="fill:#fff;opacity:0.2"></path><path d="M155.06,311.21a.41.41,0,0,0-.47.37.42.42,0,0,0,.37.47.43.43,0,0,0,.47-.37A.43.43,0,0,0,155.06,311.21Z" style="fill:#fff;opacity:0.2"></path><path d="M153,314.28a.43.43,0,0,0-.47.37.43.43,0,0,0,.37.47.42.42,0,0,0,.1-.84Z" style="fill:#fff;opacity:0.2"></path><path d="M151.76,312.09a.42.42,0,0,0-.47.37.43.43,0,0,0,.37.47.42.42,0,0,0,.47-.37A.41.41,0,0,0,151.76,312.09Z" style="fill:#fff;opacity:0.2"></path><path d="M158.2,309a.42.42,0,1,0,.37.47A.43.43,0,0,0,158.2,309Z" style="fill:#fff;opacity:0.2"></path><path d="M156.27,306.89a.43.43,0,0,0-.47.37.42.42,0,0,0,.37.47.42.42,0,0,0,.1-.84Z" style="fill:#fff;opacity:0.2"></path><path d="M153.36,305.94a.42.42,0,0,0-.1.84.43.43,0,0,0,.47-.37A.43.43,0,0,0,153.36,305.94Z" style="fill:#fff;opacity:0.2"></path><path d="M156.82,310.45a.42.42,0,1,0,.37.47A.43.43,0,0,0,156.82,310.45Z" style="fill:#fff;opacity:0.2"></path><path d="M152.68,308.66a.42.42,0,0,0-.48.37.43.43,0,0,0,.85.1A.43.43,0,0,0,152.68,308.66Z" style="fill:#fff;opacity:0.2"></path><path d="M160.48,311.65a.43.43,0,0,0-.47.37.42.42,0,0,0,.84.1A.43.43,0,0,0,160.48,311.65Z" style="fill:#fff;opacity:0.2"></path><path d="M159.17,306.24a.41.41,0,0,0-.47.37.42.42,0,0,0,.37.47.43.43,0,0,0,.47-.37A.42.42,0,0,0,159.17,306.24Z" style="fill:#fff;opacity:0.2"></path><path d="M158.33,314.12a.42.42,0,0,0-.47.37.42.42,0,1,0,.47-.37Z" style="fill:#fff;opacity:0.2"></path><path d="M158.4,310.83a.19.19,0,0,0-.23.18.21.21,0,0,0,.18.24.22.22,0,0,0,.24-.19A.21.21,0,0,0,158.4,310.83Z" style="fill:#fff;opacity:0.2"></path><path d="M161.09,309a.21.21,0,0,0-.24.18.22.22,0,0,0,.19.24.21.21,0,0,0,.23-.19A.2.2,0,0,0,161.09,309Z" style="fill:#fff;opacity:0.2"></path><path d="M160.45,313.69a.2.2,0,0,0-.23.18.21.21,0,0,0,.18.24.22.22,0,0,0,.24-.19A.21.21,0,0,0,160.45,313.69Z" style="fill:#fff;opacity:0.2"></path><path d="M155.84,315.73a.21.21,0,0,0-.23.19.2.2,0,0,0,.18.23A.21.21,0,0,0,156,316,.22.22,0,0,0,155.84,315.73Z" style="fill:#fff;opacity:0.2"></path><path d="M156.1,309a.22.22,0,0,0-.24.19.21.21,0,0,0,.19.23.2.2,0,0,0,.23-.18A.21.21,0,0,0,156.1,309Z" style="fill:#fff;opacity:0.2"></path><path d="M155.82,305.29a.22.22,0,0,0-.24.19.22.22,0,0,0,.43,0A.22.22,0,0,0,155.82,305.29Z" style="fill:#fff;opacity:0.2"></path><path d="M154.2,309.18a.22.22,0,0,0-.24.18.22.22,0,0,0,.19.24.21.21,0,0,0,.23-.19A.2.2,0,0,0,154.2,309.18Z" style="fill:#fff;opacity:0.2"></path><path d="M152,307.56a.21.21,0,0,0-.24.18.22.22,0,0,0,.19.24.21.21,0,0,0,.23-.19A.2.2,0,0,0,152,307.56Z" style="fill:#fff;opacity:0.2"></path><path d="M151.65,310.12a.21.21,0,0,0-.23.19.2.2,0,0,0,.18.23.21.21,0,0,0,.24-.18A.22.22,0,0,0,151.65,310.12Z" style="fill:#fff;opacity:0.2"></path><path d="M156.07,324.5a14.86,14.86,0,0,1-1.63-.1,13.41,13.41,0,1,1,9.88-2.77h0A13.32,13.32,0,0,1,156.07,324.5Zm0-24.81a11.4,11.4,0,1,0,7.05,20.37h0A11.4,11.4,0,0,0,156,299.69Z" style="fill:#407BFF"></path><rect x="143.63" y="310.09" width="24.81" height="2" transform="matrix(0.79, -0.62, 0.62, 0.79, -158.85, 162.88)" style="fill:#407BFF"></rect><path d="M129.8,307.78a17.85,17.85,0,0,1-25,19.52l-3.39,2.75.76-4.25a17.85,17.85,0,1,1,27.66-18Z" style="fill:#fff"></path><path d="M112.28,324.5a14.67,14.67,0,0,1-1.62-.1,13.41,13.41,0,1,1,9.88-2.77h0A13.35,13.35,0,0,1,112.28,324.5Zm0-24.81a11.4,11.4,0,1,0,7.06,20.37h0a11.4,11.4,0,0,0-7.06-20.37Z" style="fill:#407BFF"></path><path d="M119.61,308.46l-2.46,1a.58.58,0,0,1-.24-.27.47.47,0,0,1,0-.36l2.57-.71Z" style="fill:#407BFF"></path><path d="M119.61,308.46l-2.46,1a.58.58,0,0,1-.24-.27.47.47,0,0,1,0-.36l2.57-.71Z" style="fill:#fff;opacity:0.1"></path><path d="M119.47,307.9c-.11,0-.15.25-.07.46s.23.36.34.32.15-.25.08-.46S119.59,307.86,119.47,307.9Z" style="fill:#407BFF"></path><path d="M119.47,307.9c-.11,0-.15.25-.07.46s.23.36.34.32.15-.25.08-.46S119.59,307.86,119.47,307.9Z" style="fill:#fff;opacity:0.1"></path><path d="M116.26,304.25l-1.17,2.4a.59.59,0,0,1-.36,0,.52.52,0,0,1-.22-.28l1.48-2.23Z" style="fill:#407BFF"></path><path d="M116.26,304.25l-1.17,2.4a.59.59,0,0,1-.36,0,.52.52,0,0,1-.22-.28l1.48-2.23Z" style="fill:#fff;opacity:0.1"></path><path d="M115.8,303.92c-.06.11,0,.28.24.4s.41.11.47,0-.05-.29-.25-.4S115.86,303.81,115.8,303.92Z" style="fill:#407BFF"></path><path d="M115.8,303.92c-.06.11,0,.28.24.4s.41.11.47,0-.05-.29-.25-.4S115.86,303.81,115.8,303.92Z" style="fill:#fff;opacity:0.1"></path><path d="M108.39,304l1.3,2.34a.58.58,0,0,1-.25.26.48.48,0,0,1-.36,0l-1-2.49Z" style="fill:#407BFF"></path><path d="M108.39,304l1.3,2.34a.58.58,0,0,1-.25.26.48.48,0,0,1-.36,0l-1-2.49Z" style="fill:#fff;opacity:0.1"></path><path d="M107.85,304.23c.05.11.26.12.47,0s.32-.26.27-.37-.26-.12-.46,0S107.8,304.12,107.85,304.23Z" style="fill:#407BFF"></path><path d="M107.85,304.23c.05.11.26.12.47,0s.32-.26.27-.37-.26-.12-.46,0S107.8,304.12,107.85,304.23Z" style="fill:#fff;opacity:0.1"></path><path d="M105.36,307.3l2.47,1a.59.59,0,0,1,0,.36.51.51,0,0,1-.26.24l-2.32-1.33Z" style="fill:#407BFF"></path><path d="M105.36,307.3l2.47,1a.59.59,0,0,1,0,.36.51.51,0,0,1-.26.24l-2.32-1.33Z" style="fill:#fff;opacity:0.1"></path><path d="M105.06,307.79c.11,0,.28-.07.38-.27s.09-.42,0-.47-.28.07-.38.27S105,307.73,105.06,307.79Z" style="fill:#407BFF"></path><path d="M105.06,307.79c.11,0,.28-.07.38-.27s.09-.42,0-.47-.28.07-.38.27S105,307.73,105.06,307.79Z" style="fill:#fff;opacity:0.1"></path><path d="M105.33,312.52l2.48-1a.64.64,0,0,1,.23.28.53.53,0,0,1,0,.36l-2.59.66Z" style="fill:#407BFF"></path><path d="M105.33,312.52l2.48-1a.64.64,0,0,1,.23.28.53.53,0,0,1,0,.36l-2.59.66Z" style="fill:#fff;opacity:0.1"></path><path d="M105.45,313.08c.12,0,.15-.24.08-.46s-.22-.36-.33-.32-.16.25-.09.46S105.33,313.12,105.45,313.08Z" style="fill:#407BFF"></path><path d="M105.45,313.08c.12,0,.15-.24.08-.46s-.22-.36-.33-.32-.16.25-.09.46S105.33,313.12,105.45,313.08Z" style="fill:#fff;opacity:0.1"></path><path d="M112.19,319.24l-.3-2.65a.56.56,0,0,1,.32-.15.48.48,0,0,1,.34.12l0,2.67Z" style="fill:#407BFF"></path><path d="M112.19,319.24l-.3-2.65a.56.56,0,0,1,.32-.15.48.48,0,0,1,.34.12l0,2.67Z" style="fill:#fff;opacity:0.1"></path><path d="M112.76,319.27c0-.12-.2-.21-.42-.2s-.41.12-.4.24.19.22.42.21S112.76,319.4,112.76,319.27Z" style="fill:#407BFF"></path><path d="M112.76,319.27c0-.12-.2-.21-.42-.2s-.41.12-.4.24.19.22.42.21S112.76,319.4,112.76,319.27Z" style="fill:#fff;opacity:0.1"></path><path d="M118.37,314.8l-2.31-1.35a.64.64,0,0,1,.08-.36.5.5,0,0,1,.3-.2l2.11,1.64Z" style="fill:#407BFF"></path><path d="M118.37,314.8l-2.31-1.35a.64.64,0,0,1,.08-.36.5.5,0,0,1,.3-.2l2.11,1.64Z" style="fill:#fff;opacity:0.1"></path><path d="M118.74,314.36c-.11-.07-.29,0-.42.21s-.15.4,0,.47.28,0,.41-.22S118.84,314.43,118.74,314.36Z" style="fill:#407BFF"></path><path d="M118.74,314.36c-.11-.07-.29,0-.42.21s-.15.4,0,.47.28,0,.41-.22S118.84,314.43,118.74,314.36Z" style="fill:#fff;opacity:0.1"></path><path d="M107.7,316.46l1.38-2.29a.6.6,0,0,1,.35.08.5.5,0,0,1,.2.3L108,316.64Z" style="fill:#407BFF"></path><path d="M107.7,316.46l1.38-2.29a.6.6,0,0,1,.35.08.5.5,0,0,1,.2.3L108,316.64Z" style="fill:#fff;opacity:0.1"></path><path d="M108.14,316.83c.07-.1,0-.28-.21-.41s-.4-.16-.47-.06,0,.29.21.42S108.07,316.93,108.14,316.83Z" style="fill:#407BFF"></path><path d="M108.14,316.83c.07-.1,0-.28-.21-.41s-.4-.16-.47-.06,0,.29.21.42S108.07,316.93,108.14,316.83Z" style="fill:#fff;opacity:0.1"></path><path d="M112.94,304.58a6.24,6.24,0,1,0,5.45,6.94A6.24,6.24,0,0,0,112.94,304.58Z" style="fill:#407BFF"></path><path d="M112.94,304.58a6.24,6.24,0,1,0,5.45,6.94A6.24,6.24,0,0,0,112.94,304.58Z" style="fill:#fff;opacity:0.2"></path><path d="M120.51,311.94l-2.67-.15a.61.61,0,0,1-.09-.35.47.47,0,0,1,.17-.31l2.63.49Z" style="fill:#407BFF"></path><path d="M120.51,311.94l-2.67-.15a.61.61,0,0,1-.09-.35.47.47,0,0,1,.17-.31l2.63.49Z" style="fill:#fff;opacity:0.4"></path><path d="M120.63,311.38c-.12,0-.24.15-.27.38s0,.42.18.43.24-.15.27-.38S120.76,311.39,120.63,311.38Z" style="fill:#407BFF"></path><path d="M120.63,311.38c-.12,0-.24.15-.27.38s0,.42.18.43.24-.15.27-.38S120.76,311.39,120.63,311.38Z" style="fill:#fff;opacity:0.2"></path><path d="M118.12,306.72l-1.9,1.88a.61.61,0,0,1-.32-.16.54.54,0,0,1-.12-.34l2.13-1.63Z" style="fill:#407BFF"></path><path d="M118.12,306.72l-1.9,1.88a.61.61,0,0,1-.32-.16.54.54,0,0,1-.12-.34l2.13-1.63Z" style="fill:#fff;opacity:0.4"></path><path d="M117.79,306.25c-.1.08-.05.28.1.45s.34.25.44.17,0-.29-.11-.46S117.88,306.17,117.79,306.25Z" style="fill:#407BFF"></path><path d="M117.79,306.25c-.1.08-.05.28.1.45s.34.25.44.17,0-.29-.11-.46S117.88,306.17,117.79,306.25Z" style="fill:#fff;opacity:0.2"></path><path d="M117.17,317.52l-1.66-2.09a.57.57,0,0,1,.2-.3.48.48,0,0,1,.35-.08l1.37,2.29Z" style="fill:#407BFF"></path><path d="M117.17,317.52l-1.66-2.09a.57.57,0,0,1,.2-.3.48.48,0,0,1,.35-.08l1.37,2.29Z" style="fill:#fff;opacity:0.4"></path><path d="M117.67,317.24c-.07-.1-.28-.08-.46.05s-.28.32-.21.42.28.08.46,0S117.74,317.34,117.67,317.24Z" style="fill:#407BFF"></path><path d="M117.67,317.24c-.07-.1-.28-.08-.46.05s-.28.32-.21.42.28.08.46,0S117.74,317.34,117.67,317.24Z" style="fill:#fff;opacity:0.2"></path><path d="M114,317.65l-.75-2a.61.61,0,0,1,.29-.19.53.53,0,0,1,.35,0l.42,2.13Z" style="fill:#407BFF"></path><path d="M114,317.65l-.75-2a.61.61,0,0,1,.29-.19.53.53,0,0,1,.35,0l.42,2.13Z" style="fill:#fff;opacity:0.4"></path><path d="M114.52,317.47c0-.14-.24-.2-.46-.14s-.36.22-.33.36.25.2.47.13S114.56,317.6,114.52,317.47Z" style="fill:#407BFF"></path><path d="M114.52,317.47c0-.14-.24-.2-.46-.14s-.36.22-.33.36.25.2.47.13S114.56,317.6,114.52,317.47Z" style="fill:#fff;opacity:0.2"></path><path d="M116.07,313.62l-.89-.3s-.13-.25,0-.41a.44.44,0,0,1,.36-.18l.73.61Z" style="fill:#407BFF"></path><path d="M116.07,313.62l-.89-.3s-.13-.25,0-.41a.44.44,0,0,1,.36-.18l.73.61Z" style="fill:#fff;opacity:0.5"></path><path d="M116.16,313a.39.39,0,0,0-.52.18.38.38,0,0,0,.12.53.39.39,0,0,0,.52-.18A.38.38,0,0,0,116.16,313Z" style="fill:#407BFF"></path><path d="M116.16,313a.39.39,0,0,0-.52.18.38.38,0,0,0,.12.53.39.39,0,0,0,.52-.18A.38.38,0,0,0,116.16,313Z" style="fill:#fff;opacity:0.30000000000000004"></path><path d="M116.87,310.2l-.87.38s-.26-.1-.3-.28a.47.47,0,0,1,.16-.38l.94,0Z" style="fill:#407BFF"></path><path d="M116.87,310.2l-.87.38s-.26-.1-.3-.28a.47.47,0,0,1,.16-.38l.94,0Z" style="fill:#fff;opacity:0.5"></path><path d="M116.54,309.69a.39.39,0,0,0-.27.48.38.38,0,0,0,.44.32A.38.38,0,0,0,117,310,.39.39,0,0,0,116.54,309.69Z" style="fill:#407BFF"></path><path d="M116.54,309.69a.39.39,0,0,0-.27.48.38.38,0,0,0,.44.32A.38.38,0,0,0,117,310,.39.39,0,0,0,116.54,309.69Z" style="fill:#fff;opacity:0.30000000000000004"></path><path d="M114.66,307.19l-.32.89s-.24.13-.4,0a.47.47,0,0,1-.18-.37l.62-.72Z" style="fill:#407BFF"></path><path d="M114.66,307.19l-.32.89s-.24.13-.4,0a.47.47,0,0,1-.18-.37l.62-.72Z" style="fill:#fff;opacity:0.5"></path><path d="M114.05,307.1a.38.38,0,0,0,.18.51.36.36,0,1,0,.36-.62A.38.38,0,0,0,114.05,307.1Z" style="fill:#407BFF"></path><path d="M114.05,307.1a.38.38,0,0,0,.18.51.36.36,0,1,0,.36-.62A.38.38,0,0,0,114.05,307.1Z" style="fill:#fff;opacity:0.30000000000000004"></path><path d="M109.89,307.36l.73.6a.51.51,0,0,1-.11.39.45.45,0,0,1-.4,0l-.46-.83Z" style="fill:#407BFF"></path><path d="M109.89,307.36l.73.6a.51.51,0,0,1-.11.39.45.45,0,0,1-.4,0l-.46-.83Z" style="fill:#fff;opacity:0.5"></path><path d="M109.59,307.89a.39.39,0,0,0,.55,0,.36.36,0,1,0-.55,0Z" style="fill:#407BFF"></path><path d="M109.59,307.89a.39.39,0,0,0,.55,0,.36.36,0,1,0-.55,0Z" style="fill:#fff;opacity:0.30000000000000004"></path><path d="M108.52,310.92l.9-.29s.25.12.27.3a.45.45,0,0,1-.18.36l-1-.05Z" style="fill:#407BFF"></path><path d="M108.52,310.92l.9-.29s.25.12.27.3a.45.45,0,0,1-.18.36l-1-.05Z" style="fill:#fff;opacity:0.5"></path><path d="M108.81,311.46a.4.4,0,0,0,.31-.46.4.4,0,0,0-.42-.36.42.42,0,0,0,.11.82Z" style="fill:#407BFF"></path><path d="M108.81,311.46a.4.4,0,0,0,.31-.46.4.4,0,0,0-.42-.36.42.42,0,0,0,.11.82Z" style="fill:#fff;opacity:0.30000000000000004"></path><path d="M109.47,313.63l.46-.83a.49.49,0,0,1,.4,0,.46.46,0,0,1,.12.39l-.73.6Z" style="fill:#407BFF"></path><path d="M109.47,313.63l.46-.83a.49.49,0,0,1,.4,0,.46.46,0,0,1,.12.39l-.73.6Z" style="fill:#fff;opacity:0.5"></path><path d="M110.05,313.83a.41.41,0,0,0-.63-.53.39.39,0,0,0,.09.55A.39.39,0,0,0,110.05,313.83Z" style="fill:#407BFF"></path><path d="M110.05,313.83a.41.41,0,0,0-.63-.53.39.39,0,0,0,.09.55A.39.39,0,0,0,110.05,313.83Z" style="fill:#fff;opacity:0.30000000000000004"></path><path d="M112.06,314.67l-.1-.94s.17-.22.35-.2.32.26.32.26l-.25.91Z" style="fill:#407BFF"></path><path d="M112.06,314.67l-.1-.94s.17-.22.35-.2.32.26.32.26l-.25.91Z" style="fill:#fff;opacity:0.5"></path><path d="M112.65,314.5a.41.41,0,1,0-.44.33A.39.39,0,0,0,112.65,314.5Z" style="fill:#407BFF"></path><path d="M112.65,314.5a.41.41,0,1,0-.44.33A.39.39,0,0,0,112.65,314.5Z" style="fill:#fff;opacity:0.30000000000000004"></path><path d="M114.25,303.21l-.53,2.62a.59.59,0,0,1-.35.05.53.53,0,0,1-.29-.22l.86-2.53Z" style="fill:#407BFF"></path><path d="M114.25,303.21l-.53,2.62a.59.59,0,0,1-.35.05.53.53,0,0,1-.29-.22l.86-2.53Z" style="fill:#fff;opacity:0.4"></path><path d="M113.71,303c0,.12.12.26.34.32s.42,0,.45-.11-.12-.26-.34-.32S113.74,302.89,113.71,303Z" style="fill:#407BFF"></path><path d="M113.71,303c0,.12.12.26.34.32s.42,0,.45-.11-.12-.26-.34-.32S113.74,302.89,113.71,303Z" style="fill:#fff;opacity:0.2"></path><path d="M110.78,303.77l.74,2.57a.58.58,0,0,1-.3.2.5.5,0,0,1-.35-.06l-.4-2.64Z" style="fill:#407BFF"></path><path d="M110.78,303.77l.74,2.57a.58.58,0,0,1-.3.2.5.5,0,0,1-.35-.06l-.4-2.64Z" style="fill:#fff;opacity:0.4"></path><path d="M110.21,303.83c0,.12.23.18.45.13s.38-.18.35-.3-.23-.18-.45-.13S110.18,303.71,110.21,303.83Z" style="fill:#407BFF"></path><path d="M110.21,303.83c0,.12.23.18.45.13s.38-.18.35-.3-.23-.18-.45-.13S110.18,303.71,110.21,303.83Z" style="fill:#fff;opacity:0.2"></path><path d="M104,310.07l2.67-.14a.57.57,0,0,1,.13.33.51.51,0,0,1-.14.33l-2.66-.2Z" style="fill:#407BFF"></path><path d="M104,310.07l2.67-.14a.57.57,0,0,1,.13.33.51.51,0,0,1-.14.33l-2.66-.2Z" style="fill:#fff;opacity:0.4"></path><path d="M103.94,310.64c.13,0,.23-.19.23-.41s-.09-.41-.21-.41-.23.18-.23.4S103.82,310.63,103.94,310.64Z" style="fill:#407BFF"></path><path d="M103.94,310.64c.13,0,.23-.19.23-.41s-.09-.41-.21-.41-.23.18-.23.4S103.82,310.63,103.94,310.64Z" style="fill:#fff;opacity:0.2"></path><path d="M109.28,318.14l.81-2.55a.56.56,0,0,1,.36,0,.51.51,0,0,1,.27.25l-1.14,2.41Z" style="fill:#407BFF"></path><path d="M109.28,318.14l.81-2.55a.56.56,0,0,1,.36,0,.51.51,0,0,1,.27.25l-1.14,2.41Z" style="fill:#fff;opacity:0.4"></path><path d="M109.79,318.4c0-.11-.09-.27-.3-.36s-.42-.05-.46.06.09.27.3.36S109.75,318.51,109.79,318.4Z" style="fill:#407BFF"></path><path d="M109.79,318.4c0-.11-.09-.27-.3-.36s-.42-.05-.46.06.09.27.3.36S109.75,318.51,109.79,318.4Z" style="fill:#fff;opacity:0.2"></path><path d="M106,305.09l2.09,1.66a.58.58,0,0,1-.12.34.52.52,0,0,1-.32.16l-1.87-1.92Z" style="fill:#407BFF"></path><path d="M106,305.09l2.09,1.66a.58.58,0,0,1-.12.34.52.52,0,0,1-.32.16l-1.87-1.92Z" style="fill:#fff;opacity:0.4"></path><path d="M105.6,305.48c.09.08.29,0,.44-.16s.2-.37.11-.45-.29,0-.44.16S105.51,305.4,105.6,305.48Z" style="fill:#407BFF"></path><path d="M105.6,305.48c.09.08.29,0,.44-.16s.2-.37.11-.45-.29,0-.44.16S105.51,305.4,105.6,305.48Z" style="fill:#fff;opacity:0.2"></path><path d="M105.27,315.91l2-1.81a.52.52,0,0,1,.31.18.5.5,0,0,1,.11.34l-2.19,1.54Z" style="fill:#407BFF"></path><path d="M105.27,315.91l2-1.81a.52.52,0,0,1,.31.18.5.5,0,0,1,.11.34l-2.19,1.54Z" style="fill:#fff;opacity:0.4"></path><path d="M105.58,316.39c.1-.08.06-.28-.08-.46s-.34-.26-.43-.18-.06.28.08.46S105.49,316.47,105.58,316.39Z" style="fill:#407BFF"></path><path d="M105.58,316.39c.1-.08.06-.28-.08-.46s-.34-.26-.43-.18-.06.28.08.46S105.49,316.47,105.58,316.39Z" style="fill:#fff;opacity:0.2"></path><path d="M113.64,312.07a.42.42,0,0,0-.47.37.43.43,0,0,0,.37.47.43.43,0,0,0,.47-.37A.41.41,0,0,0,113.64,312.07Z" style="fill:#fff;opacity:0.2"></path><path d="M111.27,311.21a.42.42,0,0,0-.47.37.42.42,0,1,0,.47-.37Z" style="fill:#fff;opacity:0.2"></path><path d="M109.21,314.28a.42.42,0,1,0,.37.47A.43.43,0,0,0,109.21,314.28Z" style="fill:#fff;opacity:0.2"></path><path d="M108,312.09a.42.42,0,0,0-.47.37.43.43,0,0,0,.37.47.43.43,0,0,0,.47-.37A.41.41,0,0,0,108,312.09Z" style="fill:#fff;opacity:0.2"></path><path d="M114.41,309a.43.43,0,0,0-.47.37.43.43,0,0,0,.37.47.42.42,0,0,0,.1-.84Z" style="fill:#fff;opacity:0.2"></path><path d="M112.48,306.89a.42.42,0,1,0,.37.47A.42.42,0,0,0,112.48,306.89Z" style="fill:#fff;opacity:0.2"></path><path d="M109.57,305.94a.42.42,0,1,0,.37.47A.43.43,0,0,0,109.57,305.94Z" style="fill:#fff;opacity:0.2"></path><path d="M113,310.45a.42.42,0,1,0,.37.47A.43.43,0,0,0,113,310.45Z" style="fill:#fff;opacity:0.2"></path><path d="M108.89,308.66a.42.42,0,0,0-.47.37.42.42,0,0,0,.84.1A.42.42,0,0,0,108.89,308.66Z" style="fill:#fff;opacity:0.2"></path><path d="M116.7,311.65a.43.43,0,0,0-.47.37.41.41,0,0,0,.37.47.42.42,0,0,0,.47-.37A.43.43,0,0,0,116.7,311.65Z" style="fill:#fff;opacity:0.2"></path><path d="M115.38,306.24a.42.42,0,0,0-.47.37.43.43,0,0,0,.37.47.43.43,0,0,0,.47-.37A.41.41,0,0,0,115.38,306.24Z" style="fill:#fff;opacity:0.2"></path><path d="M114.54,314.12a.42.42,0,0,0-.47.37.43.43,0,0,0,.37.47.42.42,0,0,0,.1-.84Z" style="fill:#fff;opacity:0.2"></path><path d="M114.62,310.83a.2.2,0,0,0-.24.18.22.22,0,0,0,.19.24.21.21,0,0,0,.05-.42Z" style="fill:#fff;opacity:0.2"></path><path d="M117.3,309a.2.2,0,0,0-.23.18.21.21,0,0,0,.18.24.22.22,0,0,0,.24-.19A.21.21,0,0,0,117.3,309Z" style="fill:#fff;opacity:0.2"></path><path d="M116.67,313.69a.21.21,0,0,0-.24.18.22.22,0,0,0,.19.24.21.21,0,0,0,0-.42Z" style="fill:#fff;opacity:0.2"></path><path d="M112.06,315.73a.22.22,0,0,0-.24.19.21.21,0,0,0,.19.23.2.2,0,0,0,.23-.18A.21.21,0,0,0,112.06,315.73Z" style="fill:#fff;opacity:0.2"></path><path d="M112.31,309a.21.21,0,0,0-.23.19.2.2,0,0,0,.18.23.21.21,0,0,0,.24-.18A.22.22,0,0,0,112.31,309Z" style="fill:#fff;opacity:0.2"></path><path d="M112,305.29a.22.22,0,0,0-.24.19.21.21,0,0,0,.18.23.21.21,0,0,0,.24-.18A.22.22,0,0,0,112,305.29Z" style="fill:#fff;opacity:0.2"></path><path d="M110.41,309.18a.21.21,0,0,0-.23.18.21.21,0,0,0,.18.24.22.22,0,0,0,.24-.19A.21.21,0,0,0,110.41,309.18Z" style="fill:#fff;opacity:0.2"></path><path d="M108.17,307.56a.2.2,0,0,0-.23.18.21.21,0,1,0,.23-.18Z" style="fill:#fff;opacity:0.2"></path><path d="M107.87,310.12a.22.22,0,0,0-.24.19.21.21,0,0,0,.19.23.2.2,0,0,0,.23-.18A.22.22,0,0,0,107.87,310.12Z" style="fill:#fff;opacity:0.2"></path><path d="M120.63,311.38c-.09,0-.17.08-.22.21l-2-.37a6,6,0,0,0-.21-2.16l1.27-.54c.08.12.19.19.27.16s.15-.25.08-.46-.23-.36-.35-.32-.12.15-.11.3l-1.33.36a6.42,6.42,0,0,0-.59-1.17l.59-.58c.11.07.23.11.3.06s0-.29-.11-.46-.34-.24-.43-.16-.05.18,0,.3l-.63.48a6.24,6.24,0,0,0-1.56-1.47l.59-1.19c.13,0,.26,0,.3,0s-.05-.29-.25-.4-.4-.12-.46,0,0,.19.11.29l-.72,1.09a5.74,5.74,0,0,0-1.26-.51l.29-1.44c.14,0,.26,0,.28-.13s-.12-.26-.34-.32-.42,0-.45.11.05.19.18.26l-.47,1.39-.48-.08a6.41,6.41,0,0,0-1.91.06l-.21-.73c.13-.07.21-.16.19-.25s-.23-.18-.45-.13-.38.18-.35.3.13.14.28.15l.11.76a6.41,6.41,0,0,0-1.48.61l-.66-1.19c.11-.09.17-.2.13-.28s-.26-.12-.46,0-.33.27-.28.38.16.09.3.06l.52,1.34a6,6,0,0,0-1,.8l-1.59-1.26c.06-.12.09-.24,0-.3s-.29,0-.44.16-.2.37-.11.45.18,0,.3-.06l1.42,1.46a5.76,5.76,0,0,0-.63,1l-1.21-.5c0-.14,0-.26-.06-.3s-.28.07-.38.27-.09.41,0,.47.19,0,.28-.13l1.13.64A6.19,6.19,0,0,0,106,310l-1.86.1c0-.14-.11-.24-.2-.24s-.22.18-.22.4.09.41.21.42.17-.1.21-.24l1.81.14a6.08,6.08,0,0,0,.17,1.66l-.67.27c-.08-.13-.18-.2-.26-.17s-.16.25-.09.46.22.36.34.32.13-.14.12-.29l.67-.17a5.8,5.8,0,0,0,.8,1.66l-1.68,1.54c-.11-.08-.22-.13-.29-.07s-.06.28.08.46.34.26.43.18,0-.18,0-.31l1.84-1.29a6.12,6.12,0,0,0,.81.8l-.46.76c-.13-.05-.26-.06-.31,0s0,.29.21.42.4.15.47.05,0-.19-.09-.3l.53-.66a6.74,6.74,0,0,0,1.21.66l-.47,1.47c-.14,0-.26,0-.29.1s.09.27.3.36.42.05.46-.06,0-.19-.15-.28l.66-1.4a5.48,5.48,0,0,0,1.15.25l.48,0,.24,2.09c-.14,0-.24.12-.23.21s.19.22.42.21.4-.12.4-.25-.11-.16-.25-.19l0-2.08a6.17,6.17,0,0,0,1.13-.17l.21.58a.28.28,0,0,0-.16.28c0,.13.25.2.47.13s.36-.22.32-.35-.14-.16-.28-.16l-.12-.6a6.33,6.33,0,0,0,1.72-.87l1.24,1.57c-.1.11-.13.22-.08.3s.28.08.46,0,.28-.32.21-.42-.17-.06-.3,0l-1.06-1.77a6,6,0,0,0,1.08-1.23l.87.5c-.05.14-.06.26,0,.31s.28,0,.41-.22.15-.39,0-.46-.2,0-.31.08l-.79-.61a6.24,6.24,0,0,0,.7-2l2,.11c0,.14.09.25.18.26s.24-.15.27-.38S120.76,311.39,120.63,311.38Z" style="fill:#fff;opacity:0.7000000000000001"></path></g><g id="freepik--phase-2--inject-73"><path d="M435.52,144.38V252.61a6.86,6.86,0,0,1-6.86,6.85H286.06a6.85,6.85,0,0,1-6.85-6.85V144.38a6.85,6.85,0,0,1,6.85-6.86h142.6A6.86,6.86,0,0,1,435.52,144.38Z" style="fill:#407BFF"></path><path d="M432.32,157.2v95.41a3.67,3.67,0,0,1-3.66,3.65H286.07a3.65,3.65,0,0,1-3.66-3.65V157.2a3.66,3.66,0,0,1,3.66-3.66H428.66A3.67,3.67,0,0,1,432.32,157.2Z" style="fill:#fff;opacity:0.4;isolation:isolate"></path><path d="M343.11,145c0,1.53-1.14,2.47-3,2.47h-1.57v2h-1.29v-7h2.86C342,142.51,343.11,143.44,343.11,145Zm-1.31,0c0-.88-.58-1.38-1.71-1.38h-1.51v2.76h1.51C341.22,146.36,341.8,145.85,341.8,145Z" style="fill:#fff"></path><path d="M350.57,142.51v7h-1.29v-3h-3.59v3H344.4v-7h1.29v2.87h3.59v-2.87Z" style="fill:#fff"></path><path d="M357,147.85h-3.48l-.68,1.61h-1.33l3.13-7h1.27l3.14,7h-1.35Zm-.43-1-1.31-3-1.3,3Z" style="fill:#fff"></path><path d="M359.29,148.72l.45-1a3.84,3.84,0,0,0,2.3.76c1.08,0,1.53-.38,1.53-.9,0-1.5-4.13-.52-4.13-3.1,0-1.12.9-2.07,2.8-2.07a4.38,4.38,0,0,1,2.32.61l-.41,1a3.91,3.91,0,0,0-1.92-.54c-1.07,0-1.51.42-1.51.94,0,1.48,4.13.52,4.13,3.07,0,1.11-.91,2.07-2.81,2.07A4.48,4.48,0,0,1,359.29,148.72Z" style="fill:#fff"></path><path d="M371.34,148.37v1.09h-5.21v-7h5.07v1.08h-3.78v1.81h3.36v1.06h-3.36v1.91Z" style="fill:#fff"></path><path d="M380.06,148.36v1.1h-5.12v-.87L377.7,146c.67-.64.79-1.05.79-1.44,0-.63-.43-1-1.29-1a2,2,0,0,0-1.63.72l-.9-.69a3.2,3.2,0,0,1,2.64-1.15c1.51,0,2.48.76,2.48,2a2.77,2.77,0,0,1-1.15,2.2l-1.86,1.76Z" style="fill:#fff"></path><g id="freepik--group--inject-73"><path d="M330.21,212.84l1,12.11s0,0,0,0l.71,8.19,5.32-1.57,4.82-1.41S335.25,213.15,330.21,212.84Z" style="fill:#263238"></path><path d="M331.24,225s0,0,0,0l.71,8.19,5.32-1.57a37.63,37.63,0,0,0-5-10.15S331.82,222.86,331.24,225Z" style="opacity:0.2;isolation:isolate"></path><path d="M335.55,256.26h-34c-.08-1.85-.16-3.67-.26-5.45q0-.85-.09-1.68c-.2-3.59-.45-7-.73-10.2,0-.28-.05-.56-.07-.83-.19-2.06-.38-4-.57-5.86l-.06-.53c-.07-.74-.16-1.46-.23-2.15-.95-8.41-1.84-13.72-1.84-13.72l.26,0,6.7-.62,2.69-.25,5.3-.49,6.11-.56.95-.09,3.38-.31,7.16-.66c.81,2.76,1.5,5.65,2.08,8.59.73,3.66,1.3,7.4,1.75,11.1a.34.34,0,0,1,0,.1c.62,5.11,1,10.12,1.22,14.7.15,3,.23,5.77.27,8.27C335.54,255.82,335.54,256,335.55,256.26Z" style="fill:#263238"></path><path d="M307,215.27c1.37,1.25,8.47,2,8.47,2l2.74,4.12,1.28-5.87s2.36-.56,1.87-1.29a5.89,5.89,0,0,1-4-2.13c-1.2-1.63-1.11-3.92-.72-6.14,0,0,0-.06,0-.09h0l-5.52-4.08L307.34,199C308.57,203.58,310.06,212,307,215.27Z" style="fill:#eec1bb"></path><path d="M308.9,202.94c1.16,5.36,6,8.46,8.48,9.21-1.2-1.63-1.11-3.92-.72-6.14a.22.22,0,0,1,0-.09l-5.52-4.08C311,202.67,308.72,202.12,308.9,202.94Z" style="opacity:0.2;isolation:isolate"></path><path d="M321.63,181.68a5.67,5.67,0,0,1,5.54,3.31c2,3.79-.32,5.65-.32,5.65a5.81,5.81,0,0,0-.73-2.8s.91,3.68-3.14,7S308.31,201,308.31,201s-5.51-3.43-6.25-9.06,0-9.42,6.87-11.7S322.13,178.08,321.63,181.68Z" style="fill:#263238"></path><path d="M308.42,192.45c-.31,5.54-.72,9,1.12,12.22a9.85,9.85,0,0,0,.83,1.23c4.19,5.35,12.19,3.37,14.41-2.67a20.79,20.79,0,0,0,.89-3.38c.95-5.32.2-12-4.53-14.58a8.57,8.57,0,0,0-12.72,7.18Z" style="fill:#eec1bb"></path><path d="M317.67,195.26c-.09.5.16,1,.5,1s.64-.35.7-.85-.17-1-.49-1S317.73,194.75,317.67,195.26Z" style="fill:#263238"></path><path d="M323.4,195.92c-.09.49.17.94.5,1s.64-.35.7-.85-.17-1-.49-1S323.46,195.43,323.4,195.92Z" style="fill:#263238"></path><path d="M321.55,196a18.31,18.31,0,0,0,1.93,4.61,3,3,0,0,1-2.49.18Z" style="fill:#d4827d"></path><path d="M316,192.93a.29.29,0,0,0,.31,0,2.43,2.43,0,0,1,2.14-.33.31.31,0,0,0,.39-.16.3.3,0,0,0-.16-.39h0a3,3,0,0,0-2.7.39.29.29,0,0,0-.09.41h0A.35.35,0,0,0,316,192.93Z" style="fill:#263238"></path><path d="M319.14,203.12h0a4.61,4.61,0,0,1-3-3,.17.17,0,0,1,.11-.2.16.16,0,0,1,.19.11h0a4.4,4.4,0,0,0,2.79,2.77.16.16,0,0,1,.11.19v0a.15.15,0,0,1-.19.1Z" style="fill:#263238"></path><path d="M326.12,193.46a.34.34,0,0,0,.17-.05.31.31,0,0,0,0-.42h0a3,3,0,0,0-2.6-.84.31.31,0,0,0-.23.36h0a.31.31,0,0,0,.36.22h0a2.43,2.43,0,0,1,2.05.7A.34.34,0,0,0,326.12,193.46Z" style="fill:#263238"></path><path d="M324.32,188.08c-1.34-.73-3,.34-3,.34a34.21,34.21,0,0,0-5.76-1.07,3.58,3.58,0,0,0-3.07,2.18c-.25.45.48,1.52.48,1.52s-1.25,5.63-1.61,7.18l-3.1,3.8a26,26,0,0,1-1.51-14.29C308.13,179.67,324,183,324,183Z" style="fill:#263238"></path><path d="M304.83,199a6,6,0,0,0,3.4,3c2,.67,3.08-1.07,2.64-3-.41-1.71-1.93-4.19-4-4A2.66,2.66,0,0,0,304.83,199Z" style="fill:#eec1bb"></path><path d="M307.74,212.15l7.77,3.69,2.74,5.35v-6s1.1-1.21,0-3.55l4.8,1.84,2.17,5.51-5.61-2.33-1.36,5.76-2.74-4.56L312,221.8l-7.4-6.61Z" style="fill:#407BFF"></path><path d="M307.74,212.15l7.77,3.69,2.74,5.35v-6s1.1-1.21,0-3.55l4.8,1.84,2.17,5.51-5.61-2.33-1.36,5.76-2.74-4.56L312,221.8l-7.4-6.61Z" style="opacity:0.2;isolation:isolate"></path><path d="M299.5,229.56c.09.86.2,1.76.29,2.68.19,1.83.38,3.8.57,5.86.35,3.91.66,8.19.89,12.71,14.57-3.91,3.27-24.56,3.27-24.56A14.18,14.18,0,0,0,299.5,229.56Z" style="opacity:0.2;isolation:isolate"></path><path d="M295.61,231.71s-.14,14.4,2.05,17.31,23.81-9.28,23.81-9.28,8.19,2.27,9.71.88c0,0,.34-8.14,0-8.15s-8.52,1.66-10.19,3.79c0,0-14.71,5.14-17.42,5.33s-1.74-9.88-1.74-9.88Z" style="fill:#eec1bb"></path><path d="M297.66,215.84c-5.73.69-3.6,23.9-3.6,23.9l13-1.65S303.43,215.15,297.66,215.84Z" style="fill:#263238"></path><path d="M344.62,241.58c0,1.68-5.47,9.22-9.08,14l-.5.66h-5c1.15-1.93,3.4-5.74,5.25-8.93,1.56-2.68,2.83-4.93,2.91-5.27.23-.91-4.13-9.43-4.13-9.43l6.45-2,.76-.24h0C341.36,230.67,344.62,239.12,344.62,241.58Z" style="fill:#eec1bb"></path></g><path d="M383.48,214.74c1.31-1.47,4.57-4.05.89-7.05s-2.26-8.72,1.73-8.6.26-2.48.43-7.05,6-5.14,9.34-2.82,6-3.67,10.3-2.62,2.76,4.8,3.72,8.73,7.26.7,9.2,5.09-1.36,4.18-1,9,4.23,5.69,3.86,9.38-8.26,4.07-7.69,9.5-2.75,9.73-7.18,7.48-3.55,4.76-9.41,3.22-6.76-5.76-6.87-9.92-4.14-1-6.81-2.79S379.25,219.45,383.48,214.74Z" style="fill:#2e353a"></path><polygon points="418.91 223.14 415.24 246.8 413.77 256.26 384.98 256.26 385.46 247.94 385.76 242.83 386.36 232.35 386.67 226.88 386.95 222.08 396.51 222.4 398.65 222.47 398.82 222.47 404.41 222.66 406.37 222.72 408.55 222.8 417.4 223.09 418.91 223.14" style="fill:#407BFF"></polygon><polygon points="418.91 223.14 415.24 246.8 413.77 256.26 384.98 256.26 385.46 247.94 385.76 242.83 386.36 232.35 386.67 226.88 386.95 222.08 396.51 222.4 398.65 222.47 398.82 222.47 404.41 222.66 406.37 222.72 408.55 222.8 417.4 223.09 418.91 223.14" style="fill:#fff;opacity:0.7000000000000001;isolation:isolate"></polygon><path d="M399.92,226.89c6.41-1.57,7.86-2.69,7.86-2.69-4.56-3.43-1.89-10.56-1.89-10.56L398.22,216a24.21,24.21,0,0,1,.68,3.26c.6,4.75-1.55,5-1.55,5C396.27,227,399.92,226.89,399.92,226.89Z" style="fill:#9f5b53"></path><path d="M398.22,216a24.21,24.21,0,0,1,.68,3.26c5.29-.59,7-5.6,7-5.6Z" style="opacity:0.2;isolation:isolate"></path><path d="M397.61,194.11c-6.83.62-8.7,4.48-8.56,11.56.17,8.85,2.68,14.93,11.06,12.28C411.47,214.35,409,193.09,397.61,194.11Z" style="fill:#9f5b53"></path><path d="M393.43,204.89a14.21,14.21,0,0,1-1.73,3,1.88,1.88,0,0,0,1.87.61Z" style="fill:#892b29"></path><path d="M397.56,204c0,.57.37,1,.75,1s.65-.5.61-1.07-.37-1-.75-1S397.52,203.39,397.56,204Z" style="fill:#2e353a"></path><path d="M398.33,202.91l-1.25-.4S397.75,203.5,398.33,202.91Z" style="fill:#2e353a"></path><path d="M390.56,204.3c0,.57.38,1,.75,1s.65-.5.61-1.07-.37-1-.75-1S390.53,203.74,390.56,204.3Z" style="fill:#2e353a"></path><path d="M391.33,203.26l-1.25-.4S390.76,203.85,391.33,203.26Z" style="fill:#2e353a"></path><path d="M400.12,200.64a3.86,3.86,0,0,1-3.12-1.49.36.36,0,1,1,.6-.4,3.19,3.19,0,0,0,2.55,1.16.34.34,0,0,1,.37.35.37.37,0,0,1-.35.38Z" style="fill:#2e353a"></path><path d="M389.61,200.72a.39.39,0,0,1-.25-.1.38.38,0,0,1,0-.52,3.57,3.57,0,0,1,2.87-1.23.35.35,0,0,1,.3.41.34.34,0,0,1-.4.3,2.88,2.88,0,0,0-2.24,1A.4.4,0,0,1,389.61,200.72Z" style="fill:#2e353a"></path><path d="M406.12,205s-3.7-5.32-3.61-9.7c0,0-14-4.3-13.46,9.49,0,0-2.43-12.08,9.29-13.41s13.22,15.85,7.62,21.52C406,212.85,408.41,208.28,406.12,205Z" style="fill:#2e353a"></path><path d="M405.13,206.5a3,3,0,0,1,3-3c2.14,0,3.54,4.29-1.63,5.81C405.74,209.5,405.25,208.8,405.13,206.5Z" style="fill:#9f5b53"></path><path d="M394.47,211.4h-.11a.36.36,0,0,1-.24-.45s.92-2.82,4.61-2.38a.37.37,0,0,1,.31.41.36.36,0,0,1-.4.31c-3.07-.37-3.8,1.78-3.83,1.87A.35.35,0,0,1,394.47,211.4Z" style="fill:#2e353a"></path><path d="M406.39,220.64s-3.88,4.31-6.71,5.62c0,0-1.59-3.48-.86-5.62,0,0-4.93,2.8-4.43,6.41s4.93.52,4.93.52,3.77,3.46,6.84,1.5,2.39-6.27,2.39-6.27Z" style="fill:#407BFF"></path><path d="M399.37,231.41a.66.66,0,0,1-1.31,0,.66.66,0,1,1,1.31,0Z" style="fill:#407BFF"></path><path d="M398.11,239.32a.66.66,0,1,1-.66-.66A.67.67,0,0,1,398.11,239.32Z" style="fill:#407BFF"></path><path d="M387,222.08c-2.79.57-16.27,15-15.12,18.52S391.48,250,391.48,250l5.1,6,4.44-3.15s-3.63-5.51-7.45-6.09c0,0-13.45-6.35-13.8-8.13s6.59-6.31,6.59-6.31a40.42,40.42,0,0,0,1.25-6.59A6.87,6.87,0,0,0,387,222.08Z" style="fill:#9f5b53"></path><path d="M421.39,256.26h-4.56l-1.59-9.46-.06-.33s-.22-11.72.3-15,3.43-8.36,3.43-8.36c3.53.7,1.48,25.93,1.48,25.93Z" style="fill:#9f5b53"></path><path d="M351.79,174.08a10.82,10.82,0,1,1-11.86-9.66A10.82,10.82,0,0,1,351.79,174.08Z" style="fill:#fff"></path><path d="M333.74,175.92l5.93,5.34s3.1-9.09,8.32-11.75c0,0-5.92,2-8.92,7.28l-3.28-3.06Z" style="fill:#407BFF"></path><polygon points="335.79 183.51 334.61 187.77 338.41 184.78 335.79 183.51" style="fill:#fff"></polygon><path d="M359.72,187.85a10.82,10.82,0,1,0,11.87-9.66A10.82,10.82,0,0,0,359.72,187.85Z" style="fill:#fff"></path><polygon points="375.72 197.29 376.9 201.55 373.1 198.55 375.72 197.29" style="fill:#fff"></polygon><path d="M376.24,191.56,371.31,183a1,1,0,0,0-1.66,0l-4.92,8.53a1,1,0,0,0,.83,1.44h9.85A1,1,0,0,0,376.24,191.56Z" style="fill:#407BFF"></path><g style="opacity:0.4;isolation:isolate"><path d="M369.69,191.11a.79.79,0,0,1,1.58,0,.79.79,0,0,1-1.58,0Zm0-5.06h1.53L371,189.8h-1Z" style="fill:#fff"></path></g></g><g id="freepik--phase-1--inject-73"><path d="M228.06,117.85V226.08a6.86,6.86,0,0,1-6.86,6.85H78.6a6.86,6.86,0,0,1-6.86-6.85V117.85A6.86,6.86,0,0,1,78.6,111H221.2A6.86,6.86,0,0,1,228.06,117.85Z" style="fill:#407BFF"></path><path d="M224.85,130.66v95.42a3.65,3.65,0,0,1-3.65,3.64H78.6A3.64,3.64,0,0,1,75,226.08V130.66A3.65,3.65,0,0,1,78.6,127H221.2A3.66,3.66,0,0,1,224.85,130.66Z" style="fill:#fff;opacity:0.4;isolation:isolate"></path><path d="M101.28,142.3s-.76-4.23,5.86-6.2,17.26-.84,23,6.2-1.61,22.24.81,29.66,6.26,20.19,1.44,26.39-35.3,12.94-42-6.62c-2.54-7.4,1.83-17.22,2.25-28.68S95.71,140.89,101.28,142.3Z" style="fill:#263238"></path><path d="M148,223.72l-4.06,5.13h0l-.63.8,0,.07h-5.16a5,5,0,0,1,.74-2.22l1.45-2.09h0l.69-1v0l2.92-4.2Z" style="fill:#eec1bb"></path><path d="M138.9,179.81c5.19,1.79,17,21.18,18.16,27.9s-12.3,21.94-12.3,21.94L139.94,225s9.24-14.6,9.35-16.11-9.26-16-9.26-16Z" style="fill:#407BFF"></path><path d="M144,199.16c-.33-.54-.65-1.06-1-1.56-1.66-2.64-3-4.68-3-4.68l0-.46-.28-3.09-.25-3C141.66,187.82,145.63,191.51,144,199.16Z" style="opacity:0.2;isolation:isolate"></path><path d="M141.36,215c0,1-.05,2.1-.08,3.2v.07c-.05,1.1-.08,2.23-.12,3.4v.06q0,.72-.06,1.47v0c0,.41,0,.81-.06,1.23l0,.89c0,.23,0,.46,0,.71h0c-.06,1.2-.12,2.44-.19,3.71H104.48c-.06-.71-.12-1.39-.21-2.1-.1-1.24-.25-2.48-.42-3.74-.08-.63-.16-1.26-.27-1.9s-.19-1.28-.31-1.94a.15.15,0,0,0,0-.06l-.19-1.15c-.09-.5-.18-1-.29-1.53-.27-1.36-.57-2.79-.92-4.29-.06-.31-.14-.62-.21-.93-.15-.63-.31-1.28-.48-1.94-.24-.94-.5-1.92-.76-2.94-.09-.33-.17-.66-.27-1s-.19-.68-.29-1c-.31-1.1-.64-2.23-1-3.4h0l-.29-.92-.34-1.16-.36-1.17-.93-3-.21-.63c-.06-.21-.13-.43-.21-.64v0c0-.18-.12-.38-.17-.56-.2-.62-.42-1.26-.62-1.91-.11-.28-.2-.58-.3-.87-.35-1.06-.71-2.16-1.1-3.27a3.36,3.36,0,0,1,.66-3.31l.2-.19a3.09,3.09,0,0,1,.83-.6h0a3.47,3.47,0,0,1,.59-.24h0c.89-.25,1.78-.49,2.68-.72l.57-.14,2-.48c.22-.06.44-.1.65-.14.86-.19,1.72-.38,2.59-.54l.31-.06c.33-.06.65-.13,1-.18.52-.11,1-.19,1.58-.28s1.32-.22,2-.33a.85.85,0,0,1,.23,0h0c.58-.1,1.16-.18,1.74-.26s.9-.13,1.36-.18,1.11-.14,1.67-.2c.72-.09,1.45-.16,2.18-.23l1.4-.12.79-.07h0l.4,0h0l.46,0h0a.32.32,0,0,1,.14,0h.06c.85-.06,1.7-.1,2.56-.13l1,0h.77c.51,0,1,0,1.53,0,1.15,0,2.28.06,3.38.1h.2l1,.05,2.21.12c.82,0,1.58.1,2.26.15l.8,0,2,.18.29,0,.44,0h0l0,0,0,0,.09.09a.48.48,0,0,1,.09.13s0,.05.06.08a4,4,0,0,1,.18.36c.07.16.15.36.23.6s.11.35.16.54.08.29.12.45.07.29.11.45a39.31,39.31,0,0,1,.71,4.8v.05c.05.48.09,1,.13,1.54.07.82.13,1.73.19,2.74.05.64.08,1.33.12,2,0,.35,0,.7.05,1.06v0c0,.41,0,.84,0,1.28,0,.79.06,1.62.08,2.5C141.49,203,141.51,208.39,141.36,215Z" style="fill:#407BFF"></path><path d="M100.1,184.33s13.73,7.33,20.91,6.59,13.2-10.46,13.2-10.46S112.88,177,100.1,184.33Z" style="fill:#eec1bb"></path><path d="M119.05,211.22c-4.73,3.52-12.57-.09-18.63-4h0c-.7-2.64-1.54-5.51-2.54-8.69-.29-1-.6-1.94-.92-3l-1.22-3.76,2-4.41s7.37,2.72,17.06,6c0,0,3.48-3.59,4.65-12.1l2.63-2.07c.65-.05,1.3-.07,2-.09h2.3C126.38,186.84,125.86,206.17,119.05,211.22Z" style="opacity:0.2;isolation:isolate"></path><path d="M119.69,186.7c-8.32-1.07-10.82-4.62-10.82-4.62,5.28-5,.9-13.61.9-13.61l10,1.87a30.4,30.4,0,0,0-.39,4.21c-.08,6.08,2.67,6.14,2.67,6.14C123.82,184,119.69,186.7,119.69,186.7Z" style="fill:#eec1bb"></path><path d="M119.78,170.34a30.4,30.4,0,0,0-.39,4.21c-6.76,0-9.62-6.08-9.62-6.08Z" style="opacity:0.2;isolation:isolate"></path><path d="M126.94,166.35c-.08.3-.16.58-.25.86-1.16,3.53-3.65,5.71-8,5.8a13.94,13.94,0,0,1-1.91-.07c-.4,0-.84-.1-1.27-.17-15-2.44-15.69-29.64-1.23-30.44,8.7-.47,11.76,4,12.89,13A30.82,30.82,0,0,1,126.94,166.35Z" style="fill:#eec1bb"></path><path d="M121.48,155.13a18.63,18.63,0,0,0,2.73,3.47,2.4,2.4,0,0,1-2.24,1.11Z" style="fill:#d4827d"></path><path d="M116.12,154.71c0,.71-.29,1.32-.77,1.36s-.9-.52-1-1.23.29-1.32.76-1.36S116.06,154,116.12,154.71Z" style="fill:#263238"></path><path d="M115,153.53l1.5-.73S115.79,154.17,115,153.53Z" style="fill:#263238"></path><path d="M125,153.86c.06.72-.28,1.33-.76,1.36s-.91-.51-1-1.22.28-1.33.76-1.36S124.93,153.15,125,153.86Z" style="fill:#263238"></path><path d="M123.82,152.69l1.51-.73S124.66,153.32,123.82,152.69Z" style="fill:#263238"></path><path d="M112,150.58a.43.43,0,0,1-.22-.06.37.37,0,0,1-.08-.51,4.86,4.86,0,0,1,4-1.67.37.37,0,0,1,.33.39.37.37,0,0,1-.39.33,4.23,4.23,0,0,0-3.38,1.37A.35.35,0,0,1,112,150.58Z" style="fill:#263238"></path><path d="M125.51,148.87a.31.31,0,0,1-.18-.05,3.67,3.67,0,0,0-3.18-.5.37.37,0,0,1-.48-.19.38.38,0,0,1,.19-.48,4.41,4.41,0,0,1,3.84.55.36.36,0,0,1-.19.67Z" style="fill:#263238"></path><path d="M105.54,157.53s3.67-7.37,2.75-12.86c0,0,16.87-8,18.68,9.47,0,0,.83-15.64-14.15-15.17s-13.72,22.36-5.63,28.46C107.19,167.43,103.26,162.14,105.54,157.53Z" style="fill:#263238"></path><path d="M107.06,159.29a3.82,3.82,0,0,0-4.3-3.26c-2.69.44-3.67,6.05,3.11,7C106.85,163.18,107.34,162.21,107.06,159.29Z" style="fill:#eec1bb"></path><path d="M121.58,164.41a.25.25,0,0,1-.24-.17,4.14,4.14,0,0,0-4.1-2.55.25.25,0,0,1,0-.5h0a4.72,4.72,0,0,1,4.57,2.9.25.25,0,0,1-.16.31Z" style="fill:#263238"></path><path d="M126.69,167.21c-1.16,3.53-3.65,5.71-8,5.8C120.53,169.94,124.52,167.89,126.69,167.21Z" style="opacity:0.1;isolation:isolate"></path><path d="M119.05,183.1l1.29-6.69s-.87,0-.64-1.86,4.76-6.55,6.69-7.12,3.59,6.7,3.74,7.12-4.31,4.34-5.54,3.89l-1.16,5.89Z" style="fill:#eec1bb"></path><path d="M94,185.09c-4,9.59,18.47,22.13,23.8,22.61s7.51-27.6,7.51-27.6l-5.92-1s-2.23,20.38-4.45,19.16S96.92,178.06,94,185.09Z" style="fill:#407BFF"></path><ellipse cx="181.48" cy="156.07" rx="28.73" ry="24.61" style="fill:#fff"></ellipse><path d="M155,142.3c0,2.21-2.09,4-4.67,4s-4.68-1.79-4.68-4,2.09-4,4.68-4S155,140.09,155,142.3Z" style="fill:#fff"></path><path d="M144.22,144a2.78,2.78,0,1,1-2.75-2.36A2.57,2.57,0,0,1,144.22,144Z" style="fill:#fff"></path><path d="M138.39,146.92a1.87,1.87,0,1,1-1.85-1.58A1.73,1.73,0,0,1,138.39,146.92Z" style="fill:#fff"></path><path d="M185.22,152.26c0-2-1.7-3.33-4.44-3.33a6.68,6.68,0,0,0-5.78,2.73l-3.45-2.24c2-2.7,5.19-4.33,9.62-4.33,5.22,0,8.7,2.38,8.7,6.46,0,5.79-6.07,6.32-6.07,10.51h-4.51C179.29,156.81,185.22,155.81,185.22,152.26Zm-6.5,15.52a2.83,2.83,0,1,1,2.84,2.77A2.74,2.74,0,0,1,178.72,167.78Z" style="fill:#407BFF"></path><path d="M197.76,146.39c-.22-.6-.88-.81-1.71-.5a2.16,2.16,0,0,0-1.43,1.47l-1.29-.28a3.65,3.65,0,0,1,2.41-2.39c1.57-.59,2.88-.27,3.34,1,.66,1.74-1.11,2.59-.63,3.85l-1.36.51C196.5,148.43,198.17,147.46,197.76,146.39Zm-.19,5.4a.9.9,0,0,1,1.69-.64.9.9,0,0,1-1.69.64Z" style="fill:#407BFF"></path><path d="M192.59,169.81a.6.6,0,1,1-.23.81A.58.58,0,0,1,192.59,169.81Zm3.54-.35c.37-.2.45-.65.18-1.16a1.39,1.39,0,0,0-1.09-.8l.07-.87a2.38,2.38,0,0,1,1.77,1.36c.53,1,.43,1.86-.33,2.27-1.07.58-1.78-.5-2.56-.08l-.46-.84C194.69,168.81,195.47,169.82,196.13,169.46Z" style="fill:#407BFF"></path><path d="M166.38,145.17a.58.58,0,0,1,.81-.21.57.57,0,0,1,.24.79.59.59,0,0,1-.8.23A.59.59,0,0,1,166.38,145.17Zm2.79-2.21c.2-.37,0-.79-.48-1.07a1.43,1.43,0,0,0-1.35-.09l-.41-.76a2.35,2.35,0,0,1,2.22.18c1,.53,1.37,1.33,1,2.08-.59,1.08-1.78.56-2.2,1.33l-.84-.46C167.61,143.2,168.81,143.62,169.17,143Z" style="fill:#407BFF"></path><path d="M167,163.26c-.23-.73-1-1-2-.73a2.58,2.58,0,0,0-1.82,1.66l-1.52-.43a4.33,4.33,0,0,1,3-2.68c1.92-.59,3.47-.11,3.93,1.39.65,2.13-1.52,3-1.05,4.56l-1.66.51C165.29,165.6,167.36,164.57,167,163.26Zm-.64,6.45a1.09,1.09,0,1,1,1.36.69A1,1,0,0,1,166.32,169.71Z" style="fill:#407BFF"></path><path d="M135.64,118.45c0,1.53-1.13,2.47-3,2.47h-1.57v2h-1.29v-7h2.86C134.51,116,135.64,116.91,135.64,118.45Zm-1.3,0c0-.88-.59-1.38-1.72-1.38h-1.51v2.76h1.51C133.75,119.83,134.34,119.32,134.34,118.45Z" style="fill:#fff"></path><path d="M143.11,116v7h-1.29v-3h-3.6v3h-1.29v-7h1.29v2.87h3.6V116Z" style="fill:#fff"></path><path d="M149.49,121.32H146l-.68,1.61H144l3.12-7h1.27l3.14,7h-1.35Zm-.43-1-1.31-3-1.3,3Z" style="fill:#fff"></path><path d="M151.83,122.19l.45-1a3.88,3.88,0,0,0,2.29.76c1.08,0,1.54-.39,1.54-.9,0-1.5-4.13-.52-4.13-3.1,0-1.12.89-2.08,2.8-2.08a4.35,4.35,0,0,1,2.31.62l-.4,1a3.94,3.94,0,0,0-1.92-.54c-1.07,0-1.51.41-1.51.94,0,1.48,4.12.52,4.12,3.07,0,1.11-.9,2.06-2.81,2.06A4.47,4.47,0,0,1,151.83,122.19Z" style="fill:#fff"></path><path d="M163.88,121.84v1.09h-5.22v-7h5.08v1.09H160v1.8h3.35v1.07H160v1.91Z" style="fill:#fff"></path><path d="M170,116v7h-1.29v-5.87h-1.47V116Z" style="fill:#fff"></path></g><g id="freepik--Vaccine--inject-73"><path d="M250.22,165.81,194.83,344a21.3,21.3,0,0,0,14,26.67h0a21.3,21.3,0,0,0,26.66-14L290.9,178.46Z" style="fill:#407BFF"></path><path d="M290.89,178.46,235.51,356.63A21.3,21.3,0,1,1,194.83,344l55.38-178.17Z" style="fill:#fff;opacity:0.6000000000000001;isolation:isolate"></path><path d="M241.82,202.93l-44.12,142a18.3,18.3,0,0,0,35,10.86l44.12-142Z" style="fill:#407BFF"></path><rect x="204.72" y="245.87" width="87.29" height="31.77" transform="translate(-75.32 421.22) rotate(-72.73)" style="fill:#407BFF"></rect><g style="opacity:0.8;isolation:isolate"><rect x="204.72" y="245.87" width="87.29" height="31.77" transform="translate(-75.32 421.22) rotate(-72.73)" style="fill:#fff"></rect></g><path d="M234.59,282.92l8.79,7.62-.45,1.44-11.56,1.31.49-1.56,9.49-1.07-7.21-6.29Z" style="fill:#263238"></path><path d="M244.54,277.84l-1.68,5.4,2.19,1.91-.46,1.5-8.74-7.77.45-1.44L247.9,276l-.47,1.53Zm-1.32.14-5.67.65,4.3,3.74Z" style="fill:#263238"></path><path d="M243,273.86a5.38,5.38,0,0,1-3.53-7,5.29,5.29,0,0,1,2.79-3.38l.62,1.23a4,4,0,0,0-2.1,2.49,4.1,4.1,0,1,0,7.82,2.43,4,4,0,0,0-.33-3.24l1.21-.66a5.31,5.31,0,0,1,.39,4.37A5.38,5.38,0,0,1,243,273.86Z" style="fill:#263238"></path><path d="M246.18,263.57a5.38,5.38,0,0,1-3.52-7,5.3,5.3,0,0,1,2.78-3.38l.63,1.23a3.94,3.94,0,0,0-2.1,2.49,4.09,4.09,0,1,0,7.49-.81l1.2-.66a5.27,5.27,0,0,1,.4,4.37A5.39,5.39,0,0,1,246.18,263.57Z" style="fill:#263238"></path><path d="M244.62,250.66l.46-1.46,10.16,3.17-.45,1.45Z" style="fill:#263238"></path><path d="M248.74,237.41l10.17,3.16-.37,1.19-9.48,3.74,7.58,2.36-.45,1.45L246,246.15l.37-1.19,9.48-3.74-7.58-2.36Z" style="fill:#263238"></path><path d="M260.89,229.74l1.27.39-2.3,7.38-10.17-3.16,2.23-7.17,1.27.39-1.78,5.72,3.12,1,1.59-5.1,1.23.39-1.58,5.1,3.28,1Z" style="fill:#263238"></path><path d="M253.79,291.83a3.15,3.15,0,0,1,1.83-2l-.86-1.8a5.49,5.49,0,0,0-.84,9.38l.71-2.29A3,3,0,0,1,253.79,291.83Z" style="fill:#263238"></path><path d="M259.29,280.13l.71-2.28a5.49,5.49,0,0,0-3.09,9.92l.71-2.28a3.11,3.11,0,0,1,1.67-5.36Z" style="fill:#263238"></path><path d="M256.69,276.53l3.84-.41.73-2.32-3.84.39Zm3.19-10.26-.67,2.16,2.93,2.52.67-2.15Z" style="fill:#263238"></path><path d="M260.79,263.33l-.67,2.17,3.39,1.05.67-2.17Z" style="fill:#263238"></path><path d="M267,255.18l.72-2.3c-2.26-.11-4.15,1.39-4.95,4l-1.33,4.27,3.39,1.05.68-2.18-1.6-.5.61-2A3,3,0,0,1,267,255.18Z" style="fill:#263238"></path><path d="M267.41,242.05l-1.26,4,1.74.54.58-1.87,1.65.52.68-2.18Z" style="fill:#263238"></path><path d="M272.35,236.24a1.42,1.42,0,0,1,.5.27l.76-2.44a4,4,0,0,0-4.83,3c-.62,2,.1,3.93,2,4.52a2.62,2.62,0,0,0,.45.1l.67-2.18a1.6,1.6,0,0,1-.56-.07,1.48,1.48,0,0,1-.91-2A1.51,1.51,0,0,1,272.35,236.24Z" style="fill:#263238"></path><polygon points="251.5 305.21 224.42 296.79 248.5 219.32 275.58 227.74 275.28 228.69 249.16 220.57 225.67 296.13 251.79 304.25 251.5 305.21" style="fill:#263238"></polygon><rect x="220.22" y="263.88" width="73.19" height="1" transform="translate(-71.88 431.16) rotate(-72.74)" style="fill:#263238"></rect><path d="M290.89,178.46,235.51,356.63a21.29,21.29,0,0,1-34.26,9.8,21.31,21.31,0,0,0,18-14.85l48.86-157.16-22.66-13.34,4.74-15.27Z" style="opacity:0.2"></path><path d="M298,168.5l-5,16.13a3.13,3.13,0,0,1-3.92,2.06l-42-13.06a3.13,3.13,0,0,1-2.2-2.9,3,3,0,0,1,.14-1l5-16.12a3.12,3.12,0,0,1,3.92-2.06l42,13.05A3.13,3.13,0,0,1,298,168.5Z" style="fill:#407BFF"></path><path d="M298,168.5l-1.39-.43c.25-.83,0-1.62-.47-1.78s-1.14.38-1.39,1.2l-6.48-2a1.59,1.59,0,0,0-3-.94l-9.72-3a1.6,1.6,0,0,0-1-2,1.58,1.58,0,0,0-2,1l-3.19-1a2.13,2.13,0,0,0-2.67,1.4l-4.05,13a2.12,2.12,0,0,1-2.67,1.4l-2.81-.88a1.56,1.56,0,0,0,.64-.84l5-16.12a1.58,1.58,0,1,0-3-.94l-5,16.12a1.54,1.54,0,0,0,.06,1.06l-7.06-2.19a2.1,2.1,0,0,0,.52-.89l5-16.12c.26-.83.05-1.64-.47-1.8s-1.13.39-1.39,1.23l-5,16.11a2.33,2.33,0,0,0-.08,1l-1.44-.45a3,3,0,0,1,.14-1l5-16.12a3.12,3.12,0,0,1,3.92-2.06l42,13.05A3.13,3.13,0,0,1,298,168.5Z" style="fill:#fff;opacity:0.2;isolation:isolate"></path><path d="M274.47,159.55h0a1.59,1.59,0,0,0-2,1l-5,16.12a1.59,1.59,0,0,0,1,2h0a1.59,1.59,0,0,0,2-1l5-16.12A1.59,1.59,0,0,0,274.47,159.55Z" style="opacity:0.2"></path><path d="M287.22,163.51h0a1.59,1.59,0,0,0-2,1l-5,16.12a1.58,1.58,0,0,0,1,2h0a1.58,1.58,0,0,0,2-1l5-16.12A1.59,1.59,0,0,0,287.22,163.51Z" style="opacity:0.2"></path><path d="M261.73,155.59h0a1.59,1.59,0,0,0-2,1l-5,16.12a1.58,1.58,0,0,0,1.05,2h0a1.59,1.59,0,0,0,2-1l5-16.12A1.58,1.58,0,0,0,261.73,155.59Z" style="opacity:0.2"></path><path d="M252.8,152.81h0c-.51-.16-1.14.39-1.4,1.23l-5,16.11c-.26.84,0,1.64.46,1.8h0c.51.16,1.14-.38,1.4-1.22l5-16.12C253.52,153.78,253.31,153,252.8,152.81Z" style="opacity:0.2"></path><path d="M296.14,166.29h0c-.51-.16-1.14.38-1.4,1.22l-5,16.12c-.26.83-.05,1.64.46,1.8h0c.51.16,1.14-.39,1.4-1.22l5-16.12C296.86,167.25,296.65,166.45,296.14,166.29Z" style="opacity:0.2"></path><path d="M206.76,346.53h0a4.2,4.2,0,0,1-2.76-5.25l45.83-147.43a4.19,4.19,0,0,1,5.24-2.76h0a4.18,4.18,0,0,1,2.76,5.24L212,343.77A4.2,4.2,0,0,1,206.76,346.53Z" style="fill:#fff;opacity:0.2;isolation:isolate"></path></g></svg>